  0
SECTION
  2
HEADER
  9
$ANGBASE
  50
0.0
  9
$ANGDIR
  70
1
  9
$MEASUREMENT
  70
1
  0
ENDSEC
  0
SECTION
  2
TABLES
  0
TABLE
  2
LTYPE
  70
4
  0
LTYPE
  5
40F
  2
CONTINUOUS
  70
0
  3
Solid line
  72
65
  73
0
  40
0.0
  0
LTYPE
  5
410
  2
DASHDOT
 70
0
  3
Dash Dot ____ _ ____ _
 72
65
 73
4
 40
2.0
 49
1.25
 49
-0.25
 49
0.25
 49
-0.25
  0
LTYPE
  5
411
  2
DASHED
 70
0
  3
Dashed __ __ __ __ __
 72
65
 73
2
 40
0.75
 49
0.5
 49
-0.25
  0
LTYPE
  5
43B
  2
DOTTED
 70
0
  3
Dotted .  .  .  .
 72
65
 73
2
 40
0.2
 49
0.0
 49
-0.2
  0
ENDTAB
  0
TABLE
  2
STYLE
  70
4
  0
STYLE
  2
KICAD
  70
0
  40
0
  41
1
  42
1
  50
0
  71
0
  3
isocp.shx
  0
STYLE
  2
KICADB
  70
0
  40
0
  41
1
  42
1
  50
0
  71
0
  3
isocp.shx
  0
STYLE
  2
KICADI
  70
0
  40
0
  41
1
  42
1
  50
15
  71
0
  3
isocp.shx
  0
STYLE
  2
KICADBI
  70
0
  40
0
  41
1
  42
1
  50
15
  71
0
  3
isocp.shx
  0
ENDTAB
  0
TABLE
  2
LAYER
  70
1
  0
LAYER
  2
BLACK
  70
0
  62
7
  6
CONTINUOUS
  0
ENDTAB
  0
ENDSEC
  0
SECTION
  2
ENTITIES
0
LINE
8
BLACK
6
CONTINUOUS
10
220.2312069999999835
20
-16.8210720000000009
11
220.5447599999999966
21
-16.8651359999999997
0
LINE
8
BLACK
6
CONTINUOUS
10
220.5447599999999966
20
-16.8651359999999997
11
220.8519879999999773
21
-16.9417340000000003
0
LINE
8
BLACK
6
CONTINUOUS
10
220.8519879999999773
20
-16.9417340000000003
11
221.1495269999999778
21
-17.0500279999999975
0
LINE
8
BLACK
6
CONTINUOUS
10
221.1495269999999778
20
-17.0500279999999975
11
221.4341149999999914
21
-17.1888299999999994
0
LINE
8
BLACK
6
CONTINUOUS
10
221.4341149999999914
20
-17.1888299999999994
11
221.7026359999999841
21
-17.3566199999999995
0
LINE
8
BLACK
6
CONTINUOUS
10
221.7026359999999841
20
-17.3566199999999995
11
221.952145999999999
21
-17.5515599999999985
0
LINE
8
BLACK
6
CONTINUOUS
10
221.952145999999999
20
-17.5515599999999985
11
222.1799120000000016
21
-17.7715129999999988
0
LINE
8
BLACK
6
CONTINUOUS
10
222.1799120000000016
20
-17.7715129999999988
11
222.383437999999984
21
-18.0140700000000002
0
LINE
8
BLACK
6
CONTINUOUS
10
222.383437999999984
20
-18.0140700000000002
11
222.5604939999999772
21
-18.2765729999999991
0
LINE
8
BLACK
6
CONTINUOUS
10
222.5604939999999772
20
-18.2765729999999991
11
222.7091409999999883
21
-18.5561450000000008
0
LINE
8
BLACK
6
CONTINUOUS
10
222.7091409999999883
20
-18.5561450000000008
11
222.827748999999983
21
-18.8497239999999984
0
LINE
8
BLACK
6
CONTINUOUS
10
222.827748999999983
20
-18.8497239999999984
11
222.9150199999999984
21
-19.1540940000000006
0
LINE
8
BLACK
6
CONTINUOUS
10
222.9150199999999984
20
-19.1540940000000006
11
222.9699779999999976
21
-19.4658130000000007
0
LINE
8
BLACK
6
CONTINUOUS
10
222.9699779999999976
20
-19.4658130000000007
11
222.970011999999997
21
-19.465914999999999
0
LINE
8
BLACK
6
CONTINUOUS
10
222.970011999999997
20
-19.465914999999999
11
224.6822540000000004
21
-33.4110219999999956
0
LINE
8
BLACK
6
CONTINUOUS
10
224.6822540000000004
20
-33.4110219999999956
11
224.6822530000000029
21
-33.4110289999999992
0
LINE
8
BLACK
6
CONTINUOUS
10
224.6822530000000029
20
-33.4110289999999992
11
224.6972689999999773
21
-33.6754940000000005
0
LINE
8
BLACK
6
CONTINUOUS
10
224.6972689999999773
20
-33.6754940000000005
11
224.6776339999999834
21
-33.9396629999999959
0
LINE
8
BLACK
6
CONTINUOUS
10
224.6776339999999834
20
-33.9396629999999959
11
224.6236849999999947
21
-34.1990089999999967
0
LINE
8
BLACK
6
CONTINUOUS
10
224.6236849999999947
20
-34.1990089999999967
11
224.536344999999983
21
-34.4490939999999952
0
LINE
8
BLACK
6
CONTINUOUS
10
224.536344999999983
20
-34.4490939999999952
11
224.4171089999999822
21
-34.6856390000000019
0
LINE
8
BLACK
6
CONTINUOUS
10
224.4171089999999822
20
-34.6856390000000019
11
224.2680169999999862
21
-34.904595999999998
0
LINE
8
BLACK
6
CONTINUOUS
10
224.2680169999999862
20
-34.904595999999998
11
224.0916189999999801
21
-35.1022180000000006
0
LINE
8
BLACK
6
CONTINUOUS
10
224.0916189999999801
20
-35.1022180000000006
11
223.8909349999999847
21
-35.2751249999999956
0
LINE
8
BLACK
6
CONTINUOUS
10
223.8909349999999847
20
-35.2751249999999956
11
223.6693989999999985
21
-35.4203569999999957
0
LINE
8
BLACK
6
CONTINUOUS
10
223.6693989999999985
20
-35.4203569999999957
11
223.4307999999999765
21
-35.5354290000000006
0
LINE
8
BLACK
6
CONTINUOUS
10
223.4307999999999765
20
-35.5354290000000006
11
223.179222999999979
21
-35.6183720000000008
0
LINE
8
BLACK
6
CONTINUOUS
10
223.179222999999979
20
-35.6183720000000008
11
222.9189709999999991
21
-35.6677660000000003
0
LINE
8
BLACK
6
CONTINUOUS
10
222.9189709999999991
20
-35.6677660000000003
11
222.9189669999999808
21
-35.6677350000000004
0
LINE
8
BLACK
6
CONTINUOUS
10
222.9189669999999808
20
-35.6677350000000004
11
222.9189659999999833
21
-35.6677339999999958
0
LINE
8
BLACK
6
CONTINUOUS
10
222.9189659999999833
20
-35.6677339999999958
11
222.9189659999999833
21
-35.6677350000000004
0
LINE
8
BLACK
6
CONTINUOUS
10
222.9189659999999833
20
-35.6677350000000004
11
222.1625729999999805
21
-35.7605409999999964
0
LINE
8
BLACK
6
CONTINUOUS
10
222.1625729999999805
20
-35.7605409999999964
11
222.1625709999999856
21
-35.7605399999999989
0
LINE
8
BLACK
6
CONTINUOUS
10
222.1625709999999856
20
-35.7605399999999989
11
222.1625709999999856
21
-35.7605409999999964
0
LINE
8
BLACK
6
CONTINUOUS
10
222.1625709999999856
20
-35.7605409999999964
11
222.1625769999999989
21
-35.760587000000001
0
LINE
8
BLACK
6
CONTINUOUS
10
222.1625769999999989
20
-35.760587000000001
11
222.0340849999999762
21
-35.7763479999999987
0
LINE
8
BLACK
6
CONTINUOUS
10
222.0340849999999762
20
-35.7763479999999987
11
221.7834149999999909
21
-35.8411439999999999
0
LINE
8
BLACK
6
CONTINUOUS
10
221.7834149999999909
20
-35.8411439999999999
11
221.5433469999999829
21
-35.9381089999999972
0
LINE
8
BLACK
6
CONTINUOUS
10
221.5433469999999829
20
-35.9381089999999972
11
221.3179920000000038
21
-36.0655810000000017
0
LINE
8
BLACK
6
CONTINUOUS
10
221.3179920000000038
20
-36.0655810000000017
11
221.111204999999984
21
-36.2213810000000009
0
LINE
8
BLACK
6
CONTINUOUS
10
221.111204999999984
20
-36.2213810000000009
11
220.9265259999999955
21
-36.4028409999999951
0
LINE
8
BLACK
6
CONTINUOUS
10
220.9265259999999955
20
-36.4028409999999951
11
220.7671139999999923
21
-36.606856999999998
0
LINE
8
BLACK
6
CONTINUOUS
10
220.7671139999999923
20
-36.606856999999998
11
220.6356989999999882
21
-36.8299359999999965
0
LINE
8
BLACK
6
CONTINUOUS
10
220.6356989999999882
20
-36.8299359999999965
11
220.534528999999992
21
-37.0682609999999997
0
LINE
8
BLACK
6
CONTINUOUS
10
220.534528999999992
20
-37.0682609999999997
11
220.4653349999999818
21
-37.3177540000000008
0
LINE
8
BLACK
6
CONTINUOUS
10
220.4653349999999818
20
-37.3177540000000008
11
220.4293019999999785
21
-37.5741439999999969
0
LINE
8
BLACK
6
CONTINUOUS
10
220.4293019999999785
20
-37.5741439999999969
11
220.42704599999999
21
-37.833044000000001
0
LINE
8
BLACK
6
CONTINUOUS
10
220.42704599999999
20
-37.833044000000001
11
220.4428249999999991
21
-37.9615340000000003
0
LINE
8
BLACK
6
CONTINUOUS
10
220.4428249999999991
20
-37.9615340000000003
11
222.2769359999999779
21
-52.8991889999999998
0
LINE
8
BLACK
6
CONTINUOUS
10
222.2769359999999779
20
-52.8991889999999998
11
222.2769309999999905
21
-52.8992509999999996
0
LINE
8
BLACK
6
CONTINUOUS
10
222.2769309999999905
20
-52.8992509999999996
11
222.2926999999999964
21
-53.027674999999995
0
LINE
8
BLACK
6
CONTINUOUS
10
222.2926999999999964
20
-53.027674999999995
11
222.3575229999999863
21
-53.2783259999999999
0
LINE
8
BLACK
6
CONTINUOUS
10
222.3575229999999863
20
-53.2783259999999999
11
222.4545080000000041
21
-53.5183719999999994
0
LINE
8
BLACK
6
CONTINUOUS
10
222.4545080000000041
20
-53.5183719999999994
11
222.5819960000000037
21
-53.7437049999999985
0
LINE
8
BLACK
6
CONTINUOUS
10
222.5819960000000037
20
-53.7437049999999985
11
222.7378049999999803
21
-53.9504689999999982
0
LINE
8
BLACK
6
CONTINUOUS
10
222.7378049999999803
20
-53.9504689999999982
11
222.9192689999999857
21
-54.1351279999999946
0
LINE
8
BLACK
6
CONTINUOUS
10
222.9192689999999857
20
-54.1351279999999946
11
223.123283999999984
21
-54.2945199999999986
0
LINE
8
BLACK
6
CONTINUOUS
10
223.123283999999984
20
-54.2945199999999986
11
223.3463589999999783
21
-54.4259199999999979
0
LINE
8
BLACK
6
CONTINUOUS
10
223.3463589999999783
20
-54.4259199999999979
11
223.5846760000000017
21
-54.5270779999999959
0
LINE
8
BLACK
6
CONTINUOUS
10
223.5846760000000017
20
-54.5270779999999959
11
223.8341589999999997
21
-54.5962639999999979
0
LINE
8
BLACK
6
CONTINUOUS
10
223.8341589999999997
20
-54.5962639999999979
11
224.0905369999999834
21
-54.6322939999999946
0
LINE
8
BLACK
6
CONTINUOUS
10
224.0905369999999834
20
-54.6322939999999946
11
224.3494249999999965
21
-54.6345509999999948
0
LINE
8
BLACK
6
CONTINUOUS
10
224.3494249999999965
20
-54.6345509999999948
11
224.4779089999999826
21
-54.6187739999999948
0
LINE
8
BLACK
6
CONTINUOUS
10
224.4779089999999826
20
-54.6187739999999948
11
225.2346309999999789
21
-54.5258619999999965
0
LINE
8
BLACK
6
CONTINUOUS
10
225.2346309999999789
20
-54.5258619999999965
11
225.2346379999999897
21
-54.5258619999999965
0
LINE
8
BLACK
6
CONTINUOUS
10
225.2346379999999897
20
-54.5258619999999965
11
225.4990870000000029
21
-54.5108479999999957
0
LINE
8
BLACK
6
CONTINUOUS
10
225.4990870000000029
20
-54.5108479999999957
11
225.7632399999999961
21
-54.5304799999999972
0
LINE
8
BLACK
6
CONTINUOUS
10
225.7632399999999961
20
-54.5304799999999972
11
226.0225709999999992
21
-54.5844219999999964
0
LINE
8
BLACK
6
CONTINUOUS
10
226.0225709999999992
20
-54.5844219999999964
11
226.272642999999988
21
-54.6717510000000004
0
LINE
8
BLACK
6
CONTINUOUS
10
226.272642999999988
20
-54.6717510000000004
11
226.509176999999994
21
-54.7909739999999985
0
LINE
8
BLACK
6
CONTINUOUS
10
226.509176999999994
20
-54.7909739999999985
11
226.7281260000000032
21
-54.9400499999999994
0
LINE
8
BLACK
6
CONTINUOUS
10
226.7281260000000032
20
-54.9400499999999994
11
226.9257439999999804
21
-55.1164289999999966
0
LINE
8
BLACK
6
CONTINUOUS
10
226.9257439999999804
20
-55.1164289999999966
11
227.0986499999999921
21
-55.3170929999999998
0
LINE
8
BLACK
6
CONTINUOUS
10
227.0986499999999921
20
-55.3170929999999998
11
227.2438849999999775
21
-55.538609000000001
0
LINE
8
BLACK
6
CONTINUOUS
10
227.2438849999999775
20
-55.538609000000001
11
227.3589639999999861
21
-55.7771860000000004
0
LINE
8
BLACK
6
CONTINUOUS
10
227.3589639999999861
20
-55.7771860000000004
11
227.4419189999999844
21
-56.0287429999999986
0
LINE
8
BLACK
6
CONTINUOUS
10
227.4419189999999844
20
-56.0287429999999986
11
227.4913299999999765
21
-56.2889759999999981
0
LINE
8
BLACK
6
CONTINUOUS
10
227.4913299999999765
20
-56.2889759999999981
11
227.4913209999999992
21
-56.2889769999999956
0
LINE
8
BLACK
6
CONTINUOUS
10
227.4913209999999992
20
-56.2889769999999956
11
231.5251820000000009
21
-89.141446000000002
0
LINE
8
BLACK
6
CONTINUOUS
10
231.5251820000000009
20
-89.141446000000002
11
231.5251810000000035
21
-89.141452000000001
0
LINE
8
BLACK
6
CONTINUOUS
10
231.5251810000000035
20
-89.141452000000001
11
231.5472680000000025
21
-89.4573070000000001
0
LINE
8
BLACK
6
CONTINUOUS
10
231.5472680000000025
20
-89.4573070000000001
11
231.536217999999991
21
-89.7737479999999977
0
LINE
8
BLACK
6
CONTINUOUS
10
231.536217999999991
20
-89.7737479999999977
11
231.4921509999999785
21
-90.087299999999999
0
LINE
8
BLACK
6
CONTINUOUS
10
231.4921509999999785
20
-90.087299999999999
11
231.4155509999999936
21
-90.394527999999994
0
LINE
8
BLACK
6
CONTINUOUS
10
231.4155509999999936
20
-90.394527999999994
11
231.3072569999999928
21
-90.692065999999997
0
LINE
8
BLACK
6
CONTINUOUS
10
231.3072569999999928
20
-90.692065999999997
11
231.1684549999999945
21
-90.9766549999999938
0
LINE
8
BLACK
6
CONTINUOUS
10
231.1684549999999945
20
-90.9766549999999938
11
231.0006649999999979
21
-91.2451760000000007
0
LINE
8
BLACK
6
CONTINUOUS
10
231.0006649999999979
20
-91.2451760000000007
11
230.8057269999999903
21
-91.494686999999999
0
LINE
8
BLACK
6
CONTINUOUS
10
230.8057269999999903
20
-91.494686999999999
11
230.5857769999999789
21
-91.7224549999999965
0
LINE
8
BLACK
6
CONTINUOUS
10
230.5857769999999789
20
-91.7224549999999965
11
230.3432219999999973
21
-91.9259849999999972
0
LINE
8
BLACK
6
CONTINUOUS
10
230.3432219999999973
20
-91.9259849999999972
11
230.0807229999999777
21
-92.1030449999999945
0
LINE
8
BLACK
6
CONTINUOUS
10
230.0807229999999777
20
-92.1030449999999945
11
229.8011529999999993
21
-92.2516979999999904
0
LINE
8
BLACK
6
CONTINUOUS
10
229.8011529999999993
20
-92.2516979999999904
11
229.5075760000000002
21
-92.3703129999999959
0
LINE
8
BLACK
6
CONTINUOUS
10
229.5075760000000002
20
-92.3703129999999959
11
229.2032099999999843
21
-92.4575919999999911
0
LINE
8
BLACK
6
CONTINUOUS
10
229.2032099999999843
20
-92.4575919999999911
11
228.8913869999999804
21
-92.5125769999999932
0
LINE
8
BLACK
6
CONTINUOUS
10
228.8913869999999804
20
-92.5125769999999932
11
228.8913849999999854
21
-92.5125599999999935
0
LINE
8
BLACK
6
CONTINUOUS
10
228.8913849999999854
20
-92.5125599999999935
11
206.4847129999999993
21
-95.2637529999999941
0
LINE
8
BLACK
6
CONTINUOUS
10
206.4847129999999993
20
-95.2637529999999941
11
206.4847120000000018
21
-95.2637519999999967
0
LINE
8
BLACK
6
CONTINUOUS
10
206.4847120000000018
20
-95.2637519999999967
11
206.4847049999999911
21
-95.2637519999999967
0
LINE
8
BLACK
6
CONTINUOUS
10
206.4847049999999911
20
-95.2637519999999967
11
206.168847999999997
21
-95.2858339999999941
0
LINE
8
BLACK
6
CONTINUOUS
10
206.168847999999997
20
-95.2858339999999941
11
205.8524050000000045
21
-95.2747789999999952
0
LINE
8
BLACK
6
CONTINUOUS
10
205.8524050000000045
20
-95.2747789999999952
11
205.5388519999999914
21
-95.2307079999999928
0
LINE
8
BLACK
6
CONTINUOUS
10
205.5388519999999914
20
-95.2307079999999928
11
205.2316229999999848
21
-95.1541039999999896
0
LINE
8
BLACK
6
CONTINUOUS
10
205.2316229999999848
20
-95.1541039999999896
11
204.9340829999999869
21
-95.0458059999999989
0
LINE
8
BLACK
6
CONTINUOUS
10
204.9340829999999869
20
-95.0458059999999989
11
204.6494940000000042
21
-94.907000999999994
0
LINE
8
BLACK
6
CONTINUOUS
10
204.6494940000000042
20
-94.907000999999994
11
204.3809719999999857
21
-94.7392079999999908
0
LINE
8
BLACK
6
CONTINUOUS
10
204.3809719999999857
20
-94.7392079999999908
11
204.1314600000000041
21
-94.5442680000000024
0
LINE
8
BLACK
6
CONTINUOUS
10
204.1314600000000041
20
-94.5442680000000024
11
203.9036919999999782
21
-94.3243149999999986
0
LINE
8
BLACK
6
CONTINUOUS
10
203.9036919999999782
20
-94.3243149999999986
11
203.70016099999998
21
-94.081758999999991
0
LINE
8
BLACK
6
CONTINUOUS
10
203.70016099999998
20
-94.081758999999991
11
203.523099000000002
21
-93.8192569999999932
0
LINE
8
BLACK
6
CONTINUOUS
10
203.523099000000002
20
-93.8192569999999932
11
203.3744459999999776
21
-93.539685999999989
0
LINE
8
BLACK
6
CONTINUOUS
10
203.3744459999999776
20
-93.539685999999989
11
203.2558289999999772
21
-93.2461079999999924
0
LINE
8
BLACK
6
CONTINUOUS
10
203.2558289999999772
20
-93.2461079999999924
11
203.168547999999987
21
-92.9417389999999983
0
LINE
8
BLACK
6
CONTINUOUS
10
203.168547999999987
20
-92.9417389999999983
11
203.1135610000000042
21
-92.6299149999999969
0
LINE
8
BLACK
6
CONTINUOUS
10
203.1135610000000042
20
-92.6299149999999969
11
203.1136009999999885
21
-92.6299099999999953
0
LINE
8
BLACK
6
CONTINUOUS
10
203.1136009999999885
20
-92.6299099999999953
11
203.1136009999999885
21
-92.6299089999999978
0
LINE
8
BLACK
6
CONTINUOUS
10
203.1136009999999885
20
-92.6299089999999978
11
201.5234689999999773
21
-79.6776459999999958
0
LINE
8
BLACK
6
CONTINUOUS
10
201.5234689999999773
20
-79.6776459999999958
11
201.5234689999999773
21
-79.6776449999999983
0
LINE
8
BLACK
6
CONTINUOUS
10
201.5234689999999773
20
-79.6776449999999983
11
201.5233949999999936
21
-79.6776539999999898
0
LINE
8
BLACK
6
CONTINUOUS
10
201.5233949999999936
20
-79.6776539999999898
11
201.5044039999999939
21
-79.5229009999999903
0
LINE
8
BLACK
6
CONTINUOUS
10
201.5044039999999939
20
-79.5229009999999903
11
201.4342759999999828
21
-79.2190599999999989
0
LINE
8
BLACK
6
CONTINUOUS
10
201.4342759999999828
20
-79.2190599999999989
11
201.3327709999999797
21
-78.9242139999999921
0
LINE
8
BLACK
6
CONTINUOUS
10
201.3327709999999797
20
-78.9242139999999921
11
201.2009989999999959
21
-78.6415949999999953
0
LINE
8
BLACK
6
CONTINUOUS
10
201.2009989999999959
20
-78.6415949999999953
11
201.0404069999999876
21
-78.3742989999999935
0
LINE
8
BLACK
6
CONTINUOUS
10
201.0404069999999876
20
-78.3742989999999935
11
200.8527519999999811
21
-78.1252539999999982
0
LINE
8
BLACK
6
CONTINUOUS
10
200.8527519999999811
20
-78.1252539999999982
11
200.6400919999999815
21
-77.8971909999999923
0
LINE
8
BLACK
6
CONTINUOUS
10
200.6400919999999815
20
-77.8971909999999923
11
200.4047559999999919
21
-77.6926079999999928
0
LINE
8
BLACK
6
CONTINUOUS
10
200.4047559999999919
20
-77.6926079999999928
11
200.1493229999999812
21
-77.5137459999999976
0
LINE
8
BLACK
6
CONTINUOUS
10
200.1493229999999812
20
-77.5137459999999976
11
199.8765929999999855
21
-77.3625660000000011
0
LINE
8
BLACK
6
CONTINUOUS
10
199.8765929999999855
20
-77.3625660000000011
11
199.5895539999999926
21
-77.2407230000000027
0
LINE
8
BLACK
6
CONTINUOUS
10
199.5895539999999926
20
-77.2407230000000027
11
199.2913499999999942
21
-77.1495539999999949
0
LINE
8
BLACK
6
CONTINUOUS
10
199.2913499999999942
20
-77.1495539999999949
11
198.9852489999999818
21
-77.0900570000000016
0
LINE
8
BLACK
6
CONTINUOUS
10
198.9852489999999818
20
-77.0900570000000016
11
198.6746069999999804
21
-77.0628849999999943
0
LINE
8
BLACK
6
CONTINUOUS
10
198.6746069999999804
20
-77.0628849999999943
11
198.3628249999999866
21
-77.068333999999993
0
LINE
8
BLACK
6
CONTINUOUS
10
198.3628249999999866
20
-77.068333999999993
11
198.2080739999999821
21
-77.0873390000000001
0
LINE
8
BLACK
6
CONTINUOUS
10
198.2080739999999821
20
-77.0873390000000001
11
198.2080729999999846
21
-77.0873390000000001
0
LINE
8
BLACK
6
CONTINUOUS
10
198.2080729999999846
20
-77.0873390000000001
11
198.2080719999999872
21
-77.0873380000000026
0
LINE
8
BLACK
6
CONTINUOUS
10
198.2080719999999872
20
-77.0873380000000026
11
198.2080719999999872
21
-77.0873390000000001
0
LINE
8
BLACK
6
CONTINUOUS
10
198.2080719999999872
20
-77.0873390000000001
11
185.2558239999999898
21
-78.6776770000000027
0
LINE
8
BLACK
6
CONTINUOUS
10
185.2558239999999898
20
-78.6776770000000027
11
185.255755999999991
21
-78.6776720000000012
0
LINE
8
BLACK
6
CONTINUOUS
10
185.255755999999991
20
-78.6776720000000012
11
185.1010699999999929
21
-78.6966659999999933
0
LINE
8
BLACK
6
CONTINUOUS
10
185.1010699999999929
20
-78.6966659999999933
11
184.7972340000000031
21
-78.7668139999999966
0
LINE
8
BLACK
6
CONTINUOUS
10
184.7972340000000031
20
-78.7668139999999966
11
184.5023949999999786
21
-78.8683369999999968
0
LINE
8
BLACK
6
CONTINUOUS
10
184.5023949999999786
20
-78.8683369999999968
11
184.2197829999999783
21
-79.0001230000000021
0
LINE
8
BLACK
6
CONTINUOUS
10
184.2197829999999783
20
-79.0001230000000021
11
183.952494999999999
21
-79.1607279999999918
0
LINE
8
BLACK
6
CONTINUOUS
10
183.952494999999999
20
-79.1607279999999918
11
183.703458999999981
21
-79.3483930000000015
0
LINE
8
BLACK
6
CONTINUOUS
10
183.703458999999981
20
-79.3483930000000015
11
183.4754039999999975
21
-79.5610609999999951
0
LINE
8
BLACK
6
CONTINUOUS
10
183.4754039999999975
20
-79.5610609999999951
11
183.270826999999997
21
-79.7964020000000005
0
LINE
8
BLACK
6
CONTINUOUS
10
183.270826999999997
20
-79.7964020000000005
11
183.0919719999999984
21
-80.0518379999999894
0
LINE
8
BLACK
6
CONTINUOUS
10
183.0919719999999984
20
-80.0518379999999894
11
182.9407959999999775
21
-80.3245709999999917
0
LINE
8
BLACK
6
CONTINUOUS
10
182.9407959999999775
20
-80.3245709999999917
11
182.8189569999999833
21
-80.6116109999999964
0
LINE
8
BLACK
6
CONTINUOUS
10
182.8189569999999833
20
-80.6116109999999964
11
182.7277899999999988
21
-80.9098149999999947
0
LINE
8
BLACK
6
CONTINUOUS
10
182.7277899999999988
20
-80.9098149999999947
11
182.6682930000000056
21
-81.2159149999999954
0
LINE
8
BLACK
6
CONTINUOUS
10
182.6682930000000056
20
-81.2159149999999954
11
182.6411180000000058
21
-81.5265569999999968
0
LINE
8
BLACK
6
CONTINUOUS
10
182.6411180000000058
20
-81.5265569999999968
11
182.6465629999999862
21
-81.8383379999999931
0
LINE
8
BLACK
6
CONTINUOUS
10
182.6465629999999862
20
-81.8383379999999931
11
182.6655659999999841
21
-81.9930899999999951
0
LINE
8
BLACK
6
CONTINUOUS
10
182.6655659999999841
20
-81.9930899999999951
11
182.6655649999999866
21
-81.9930899999999951
0
LINE
8
BLACK
6
CONTINUOUS
10
182.6655649999999866
20
-81.9930899999999951
11
184.2560399999999845
21
-94.9453389999999899
0
LINE
8
BLACK
6
CONTINUOUS
10
184.2560399999999845
20
-94.9453389999999899
11
184.256038999999987
21
-94.945344999999989
0
LINE
8
BLACK
6
CONTINUOUS
10
184.256038999999987
20
-94.945344999999989
11
184.2781269999999836
21
-95.2612000000000023
0
LINE
8
BLACK
6
CONTINUOUS
10
184.2781269999999836
20
-95.2612000000000023
11
184.2670770000000005
21
-95.5776400000000024
0
LINE
8
BLACK
6
CONTINUOUS
10
184.2670770000000005
20
-95.5776400000000024
11
184.2230109999999854
21
-95.8911909999999921
0
LINE
8
BLACK
6
CONTINUOUS
10
184.2230109999999854
20
-95.8911909999999921
11
184.1464110000000005
21
-96.1984190000000012
0
LINE
8
BLACK
6
CONTINUOUS
10
184.1464110000000005
20
-96.1984190000000012
11
184.0381160000000023
21
-96.4959559999999925
0
LINE
8
BLACK
6
CONTINUOUS
10
184.0381160000000023
20
-96.4959559999999925
11
183.8993140000000039
21
-96.7805439999999919
0
LINE
8
BLACK
6
CONTINUOUS
10
183.8993140000000039
20
-96.7805439999999919
11
183.731523999999979
21
-97.0490629999999896
0
LINE
8
BLACK
6
CONTINUOUS
10
183.731523999999979
20
-97.0490629999999896
11
183.5365850000000023
21
-97.2985729999999904
0
LINE
8
BLACK
6
CONTINUOUS
10
183.5365850000000023
20
-97.2985729999999904
11
183.3166339999999934
21
-97.526338999999993
0
LINE
8
BLACK
6
CONTINUOUS
10
183.3166339999999934
20
-97.526338999999993
11
183.0740789999999834
21
-97.7298660000000012
0
LINE
8
BLACK
6
CONTINUOUS
10
183.0740789999999834
20
-97.7298660000000012
11
182.8115779999999972
21
-97.9069239999999894
0
LINE
8
BLACK
6
CONTINUOUS
10
182.8115779999999972
20
-97.9069239999999894
11
182.5320079999999905
21
-98.0555739999999929
0
LINE
8
BLACK
6
CONTINUOUS
10
182.5320079999999905
20
-98.0555739999999929
11
182.2384309999999914
21
-98.1741849999999943
0
LINE
8
BLACK
6
CONTINUOUS
10
182.2384309999999914
20
-98.1741849999999943
11
181.934063999999978
21
-98.2614599999999996
0
LINE
8
BLACK
6
CONTINUOUS
10
181.934063999999978
20
-98.2614599999999996
11
181.6224049999999863
21
-98.3164129999999972
0
LINE
8
BLACK
6
CONTINUOUS
10
181.6224049999999863
20
-98.3164129999999972
11
181.6222439999999949
21
-98.3164659999999913
0
LINE
8
BLACK
6
CONTINUOUS
10
181.6222439999999949
20
-98.3164659999999913
11
181.6222459999999899
21
-98.3164790000000011
0
LINE
8
BLACK
6
CONTINUOUS
10
181.6222459999999899
20
-98.3164790000000011
11
181.6222199999999987
21
-98.3164739999999995
0
LINE
8
BLACK
6
CONTINUOUS
10
181.6222199999999987
20
-98.3164739999999995
11
181.622177999999991
21
-98.3164879999999926
0
LINE
8
BLACK
6
CONTINUOUS
10
181.622177999999991
20
-98.3164879999999926
11
140.3080510000000061
21
-103.3892259999999936
0
LINE
8
BLACK
6
CONTINUOUS
10
140.3080510000000061
20
-103.3892259999999936
11
140.3080439999999953
21
-103.3892249999999962
0
LINE
8
BLACK
6
CONTINUOUS
10
140.3080439999999953
20
-103.3892249999999962
11
139.9921889999999962
21
-103.4113119999999952
0
LINE
8
BLACK
6
CONTINUOUS
10
139.9921889999999962
20
-103.4113119999999952
11
139.6757499999999936
21
-103.4002619999999979
0
LINE
8
BLACK
6
CONTINUOUS
10
139.6757499999999936
20
-103.4002619999999979
11
139.3621990000000039
21
-103.3561940000000021
0
LINE
8
BLACK
6
CONTINUOUS
10
139.3621990000000039
20
-103.3561940000000021
11
139.0549719999999922
21
-103.2795929999999913
0
LINE
8
BLACK
6
CONTINUOUS
10
139.0549719999999922
20
-103.2795929999999913
11
138.7574349999999868
21
-103.1712969999999956
0
LINE
8
BLACK
6
CONTINUOUS
10
138.7574349999999868
20
-103.1712969999999956
11
138.4728489999999965
21
-103.0324919999999906
0
LINE
8
BLACK
6
CONTINUOUS
10
138.4728489999999965
20
-103.0324919999999906
11
138.2043299999999988
21
-102.8647009999999966
0
LINE
8
BLACK
6
CONTINUOUS
10
138.2043299999999988
20
-102.8647009999999966
11
137.9548220000000072
21
-102.6697609999999941
0
LINE
8
BLACK
6
CONTINUOUS
10
137.9548220000000072
20
-102.6697609999999941
11
137.7270570000000021
21
-102.4498079999999902
0
LINE
8
BLACK
6
CONTINUOUS
10
137.7270570000000021
20
-102.4498079999999902
11
137.5235319999999888
21
-102.2072509999999994
0
LINE
8
BLACK
6
CONTINUOUS
10
137.5235319999999888
20
-102.2072509999999994
11
137.3464759999999956
21
-101.9447490000000016
0
LINE
8
BLACK
6
CONTINUOUS
10
137.3464759999999956
20
-101.9447490000000016
11
137.1978289999999845
21
-101.6651779999999974
0
LINE
8
BLACK
6
CONTINUOUS
10
137.1978289999999845
20
-101.6651779999999974
11
137.0792199999999923
21
-101.3716000000000008
0
LINE
8
BLACK
6
CONTINUOUS
10
137.0792199999999923
20
-101.3716000000000008
11
136.9919480000000078
21
-101.06723199999999
0
LINE
8
BLACK
6
CONTINUOUS
10
136.9919480000000078
20
-101.06723199999999
11
136.9370030000000042
21
-100.7556060000000002
0
LINE
8
BLACK
6
CONTINUOUS
10
136.9370030000000042
20
-100.7556060000000002
11
136.9369399999999928
21
-100.7554129999999901
0
LINE
8
BLACK
6
CONTINUOUS
10
136.9369399999999928
20
-100.7554129999999901
11
135.3045270000000073
21
-87.459857999999997
0
LINE
8
BLACK
6
CONTINUOUS
10
135.3045270000000073
20
-87.459857999999997
11
135.2843699999999956
21
-87.2951539999999966
0
LINE
8
BLACK
6
CONTINUOUS
10
135.2843699999999956
20
-87.2951539999999966
11
135.2075499999999977
21
-86.9723039999999941
0
LINE
8
BLACK
6
CONTINUOUS
10
135.2075499999999977
20
-86.9723039999999941
11
135.0953039999999987
21
-86.6599989999999991
0
LINE
8
BLACK
6
CONTINUOUS
10
135.0953039999999987
20
-86.6599989999999991
11
134.9490260000000035
21
-86.3621119999999962
0
LINE
8
BLACK
6
CONTINUOUS
10
134.9490260000000035
20
-86.3621119999999962
11
134.770528999999982
21
-86.0823400000000021
0
LINE
8
BLACK
6
CONTINUOUS
10
134.770528999999982
20
-86.0823400000000021
11
134.5620270000000005
21
-85.824151999999998
0
LINE
8
BLACK
6
CONTINUOUS
10
134.5620270000000005
20
-85.824151999999998
11
134.3261080000000049
21
-85.5907519999999948
0
LINE
8
BLACK
6
CONTINUOUS
10
134.3261080000000049
20
-85.5907519999999948
11
134.0656970000000001
21
-85.3850339999999903
0
LINE
8
BLACK
6
CONTINUOUS
10
134.0656970000000001
20
-85.3850339999999903
11
133.7840249999999855
21
-85.209549999999993
0
LINE
8
BLACK
6
CONTINUOUS
10
133.7840249999999855
20
-85.209549999999993
11
133.4845849999999814
21
-85.0664769999999919
0
LINE
8
BLACK
6
CONTINUOUS
10
133.4845849999999814
20
-85.0664769999999919
11
133.1710929999999848
21
-84.9575899999999962
0
LINE
8
BLACK
6
CONTINUOUS
10
133.1710929999999848
20
-84.9575899999999962
11
132.8474369999999851
21
-84.8842399999999913
0
LINE
8
BLACK
6
CONTINUOUS
10
132.8474369999999851
20
-84.8842399999999913
11
132.5176309999999944
21
-84.8473359999999985
0
LINE
8
BLACK
6
CONTINUOUS
10
132.5176309999999944
20
-84.8473359999999985
11
132.3516989999999964
21
-84.8473999999999933
0
LINE
8
BLACK
6
CONTINUOUS
10
132.3516989999999964
20
-84.8473999999999933
11
112.8168679999999995
21
-84.8474039999999974
0
LINE
8
BLACK
6
CONTINUOUS
10
112.8168679999999995
20
-84.8474039999999974
11
112.81668599999999
21
-84.8473669999999913
0
LINE
8
BLACK
6
CONTINUOUS
10
112.81668599999999
20
-84.8473669999999913
11
112.6509549999999962
21
-84.8473039999999941
0
LINE
8
BLACK
6
CONTINUOUS
10
112.6509549999999962
20
-84.8473039999999941
11
112.3211869999999948
21
-84.8842029999999994
0
LINE
8
BLACK
6
CONTINUOUS
10
112.3211869999999948
20
-84.8842029999999994
11
111.9975669999999894
21
-84.9575399999999945
0
LINE
8
BLACK
6
CONTINUOUS
10
111.9975669999999894
20
-84.9575399999999945
11
111.6841069999999974
21
-85.0664039999999915
0
LINE
8
BLACK
6
CONTINUOUS
10
111.6841069999999974
20
-85.0664039999999915
11
111.384695999999991
21
-85.2094469999999973
0
LINE
8
BLACK
6
CONTINUOUS
10
111.384695999999991
20
-85.2094469999999973
11
111.103045999999992
21
-85.3848940000000027
0
LINE
8
BLACK
6
CONTINUOUS
10
111.103045999999992
20
-85.3848940000000027
11
110.8426499999999919
21
-85.5905690000000021
0
LINE
8
BLACK
6
CONTINUOUS
10
110.8426499999999919
20
-85.5905690000000021
11
110.6067369999999954
21
-85.8239229999999935
0
LINE
8
BLACK
6
CONTINUOUS
10
110.6067369999999954
20
-85.8239229999999935
11
110.398233999999988
21
-86.082059000000001
0
LINE
8
BLACK
6
CONTINUOUS
10
110.398233999999988
20
-86.082059000000001
11
110.2197249999999968
21
-86.3617789999999985
0
LINE
8
BLACK
6
CONTINUOUS
10
110.2197249999999968
20
-86.3617789999999985
11
110.0734250000000003
21
-86.6596119999999956
0
LINE
8
BLACK
6
CONTINUOUS
10
110.0734250000000003
20
-86.6596119999999956
11
109.9611469999999969
21
-86.9718659999999915
0
LINE
8
BLACK
6
CONTINUOUS
10
109.9611469999999969
20
-86.9718659999999915
11
109.8842849999999913
21
-87.2946669999999898
0
LINE
8
BLACK
6
CONTINUOUS
10
109.8842849999999913
20
-87.2946669999999898
11
109.8641030000000001
21
-87.4593479999999914
0
LINE
8
BLACK
6
CONTINUOUS
10
109.8641030000000001
20
-87.4593479999999914
11
108.2292309999999986
21
-100.755991999999992
0
LINE
8
BLACK
6
CONTINUOUS
10
108.2292309999999986
20
-100.755991999999992
11
108.1742089999999905
21
-101.0677749999999975
0
LINE
8
BLACK
6
CONTINUOUS
10
108.1742089999999905
20
-101.0677749999999975
11
108.0869
21
-101.3720989999999915
0
LINE
8
BLACK
6
CONTINUOUS
10
108.0869
20
-101.3720989999999915
11
107.9682619999999957
21
-101.6656309999999905
0
LINE
8
BLACK
6
CONTINUOUS
10
107.9682619999999957
20
-101.6656309999999905
11
107.819593999999995
21
-101.9451540000000023
0
LINE
8
BLACK
6
CONTINUOUS
10
107.819593999999995
20
-101.9451540000000023
11
107.6425239999999945
21
-102.2076079999999934
0
LINE
8
BLACK
6
CONTINUOUS
10
107.6425239999999945
20
-102.2076079999999934
11
107.4389929999999964
21
-102.4501169999999917
0
LINE
8
BLACK
6
CONTINUOUS
10
107.4389929999999964
20
-102.4501169999999917
11
107.2112289999999888
21
-102.6700249999999954
0
LINE
8
BLACK
6
CONTINUOUS
10
107.2112289999999888
20
-102.6700249999999954
11
106.9617269999999962
21
-102.8649219999999929
0
LINE
8
BLACK
6
CONTINUOUS
10
106.9617269999999962
20
-102.8649219999999929
11
106.6932219999999916
21
-103.0326740000000001
0
LINE
8
BLACK
6
CONTINUOUS
10
106.6932219999999916
20
-103.0326740000000001
11
106.4086539999999985
21
-103.1714429999999965
0
LINE
8
BLACK
6
CONTINUOUS
10
106.4086539999999985
20
-103.1714429999999965
11
106.1111399999999918
21
-103.2797079999999994
0
LINE
8
BLACK
6
CONTINUOUS
10
106.1111399999999918
20
-103.2797079999999994
11
105.8039399999999972
21
-103.3562849999999997
0
LINE
8
BLACK
6
CONTINUOUS
10
105.8039399999999972
20
-103.3562849999999997
11
105.4904189999999886
21
-103.4003329999999892
0
LINE
8
BLACK
6
CONTINUOUS
10
105.4904189999999886
20
-103.4003329999999892
11
105.174010999999993
21
-103.4113709999999884
0
LINE
8
BLACK
6
CONTINUOUS
10
105.174010999999993
20
-103.4113709999999884
11
104.8582779999999985
21
-103.3892829999999918
0
LINE
8
BLACK
6
CONTINUOUS
10
104.8582779999999985
20
-103.3892829999999918
11
104.8581810000000019
21
-103.3892910000000001
0
LINE
8
BLACK
6
CONTINUOUS
10
104.8581810000000019
20
-103.3892910000000001
11
63.5434829999999948
21
-98.3164790000000011
0
LINE
8
BLACK
6
CONTINUOUS
10
63.5434829999999948
20
-98.3164790000000011
11
63.5434759999999983
21
-98.3164759999999944
0
LINE
8
BLACK
6
CONTINUOUS
10
63.5434759999999983
20
-98.3164759999999944
11
63.2316629999999975
21
-98.2614889999999974
0
LINE
8
BLACK
6
CONTINUOUS
10
63.2316629999999975
20
-98.2614889999999974
11
62.9272980000000004
21
-98.1742089999999905
0
LINE
8
BLACK
6
CONTINUOUS
10
62.9272980000000004
20
-98.1742089999999905
11
62.6337239999999937
21
-98.0555919999999901
0
LINE
8
BLACK
6
CONTINUOUS
10
62.6337239999999937
20
-98.0555919999999901
11
62.3541570000000007
21
-97.9069379999999967
0
LINE
8
BLACK
6
CONTINUOUS
10
62.3541570000000007
20
-97.9069379999999967
11
62.0916599999999974
21
-97.7298759999999902
0
LINE
8
BLACK
6
CONTINUOUS
10
62.0916599999999974
20
-97.7298759999999902
11
61.849107999999994
21
-97.5263459999999895
0
LINE
8
BLACK
6
CONTINUOUS
10
61.849107999999994
20
-97.5263459999999895
11
61.6291599999999988
21
-97.298577999999992
0
LINE
8
BLACK
6
CONTINUOUS
10
61.6291599999999988
20
-97.298577999999992
11
61.4342240000000004
21
-97.0490679999999912
0
LINE
8
BLACK
6
CONTINUOUS
10
61.4342240000000004
20
-97.0490679999999912
11
61.2664369999999963
21
-96.7805469999999985
0
LINE
8
BLACK
6
CONTINUOUS
10
61.2664369999999963
20
-96.7805469999999985
11
61.1276359999999954
21
-96.4959599999999966
0
LINE
8
BLACK
6
CONTINUOUS
10
61.1276359999999954
20
-96.4959599999999966
11
61.0193429999999992
21
-96.1984229999999911
0
LINE
8
BLACK
6
CONTINUOUS
10
61.0193429999999992
20
-96.1984229999999911
11
60.9427439999999976
21
-95.8911959999999937
0
LINE
8
BLACK
6
CONTINUOUS
10
60.9427439999999976
20
-95.8911959999999937
11
60.8986779999999968
21
-95.5776460000000014
0
LINE
8
BLACK
6
CONTINUOUS
10
60.8986779999999968
20
-95.5776460000000014
11
60.8876279999999994
21
-95.2612069999999989
0
LINE
8
BLACK
6
CONTINUOUS
10
60.8876279999999994
20
-95.2612069999999989
11
60.9097009999999983
21
-94.9455249999999893
0
LINE
8
BLACK
6
CONTINUOUS
10
60.9097009999999983
20
-94.9455249999999893
11
60.9096879999999956
21
-94.945342999999994
0
LINE
8
BLACK
6
CONTINUOUS
10
60.9096879999999956
20
-94.945342999999994
11
62.5001649999999955
21
-81.9930959999999942
0
LINE
8
BLACK
6
CONTINUOUS
10
62.5001649999999955
20
-81.9930959999999942
11
62.5001259999999945
21
-81.9930909999999926
0
LINE
8
BLACK
6
CONTINUOUS
10
62.5001259999999945
20
-81.9930909999999926
11
62.5191289999999995
21
-81.8383409999999998
0
LINE
8
BLACK
6
CONTINUOUS
10
62.5191289999999995
20
-81.8383409999999998
11
62.5245739999999941
21
-81.5265619999999984
0
LINE
8
BLACK
6
CONTINUOUS
10
62.5245739999999941
20
-81.5265619999999984
11
62.497399999999999
21
-81.215921999999992
0
LINE
8
BLACK
6
CONTINUOUS
10
62.497399999999999
20
-81.215921999999992
11
62.4379039999999961
21
-80.9098249999999979
0
LINE
8
BLACK
6
CONTINUOUS
10
62.4379039999999961
20
-80.9098249999999979
11
62.3467379999999949
21
-80.6116229999999945
0
LINE
8
BLACK
6
CONTINUOUS
10
62.3467379999999949
20
-80.6116229999999945
11
62.2249020000000002
21
-80.324584999999999
0
LINE
8
BLACK
6
CONTINUOUS
10
62.2249020000000002
20
-80.324584999999999
11
62.0737279999999956
21
-80.0518539999999916
0
LINE
8
BLACK
6
CONTINUOUS
10
62.0737279999999956
20
-80.0518539999999916
11
61.894874999999999
21
-79.7964190000000002
0
LINE
8
BLACK
6
CONTINUOUS
10
61.894874999999999
20
-79.7964190000000002
11
61.6903019999999955
21
-79.5610779999999949
0
LINE
8
BLACK
6
CONTINUOUS
10
61.6903019999999955
20
-79.5610779999999949
11
61.4622499999999974
21
-79.3484100000000012
0
LINE
8
BLACK
6
CONTINUOUS
10
61.4622499999999974
20
-79.3484100000000012
11
61.2132170000000002
21
-79.1607460000000032
0
LINE
8
BLACK
6
CONTINUOUS
10
61.2132170000000002
20
-79.1607460000000032
11
60.9459319999999991
21
-79.0001400000000018
0
LINE
8
BLACK
6
CONTINUOUS
10
60.9459319999999991
20
-79.0001400000000018
11
60.6633229999999983
21
-78.868352999999999
0
LINE
8
BLACK
6
CONTINUOUS
10
60.6633229999999983
20
-78.868352999999999
11
60.3684869999999947
21
-78.7668279999999896
0
LINE
8
BLACK
6
CONTINUOUS
10
60.3684869999999947
20
-78.7668279999999896
11
60.0646539999999973
21
-78.6966779999999915
0
LINE
8
BLACK
6
CONTINUOUS
10
60.0646539999999973
20
-78.6966779999999915
11
59.9099039999999974
21
-78.6776749999999936
0
LINE
8
BLACK
6
CONTINUOUS
10
59.9099039999999974
20
-78.6776749999999936
11
46.9579019999999971
21
-77.0873729999999995
0
LINE
8
BLACK
6
CONTINUOUS
10
46.9579019999999971
20
-77.0873729999999995
11
46.9578959999999981
21
-77.0874219999999895
0
LINE
8
BLACK
6
CONTINUOUS
10
46.9578959999999981
20
-77.0874219999999895
11
46.8031459999999981
21
-77.0684189999999916
0
LINE
8
BLACK
6
CONTINUOUS
10
46.8031459999999981
20
-77.0684189999999916
11
46.4913699999999963
21
-77.062972000000002
0
LINE
8
BLACK
6
CONTINUOUS
10
46.4913699999999963
20
-77.062972000000002
11
46.180731999999999
21
-77.0901459999999901
0
LINE
8
BLACK
6
CONTINUOUS
10
46.180731999999999
20
-77.0901459999999901
11
45.8746369999999999
21
-77.1496410000000026
0
LINE
8
BLACK
6
CONTINUOUS
10
45.8746369999999999
20
-77.1496410000000026
11
45.5764369999999985
21
-77.2408069999999896
0
LINE
8
BLACK
6
CONTINUOUS
10
45.5764369999999985
20
-77.2408069999999896
11
45.2894000000000005
21
-77.3626429999999914
0
LINE
8
BLACK
6
CONTINUOUS
10
45.2894000000000005
20
-77.3626429999999914
11
45.0166709999999952
21
-77.5138159999999914
0
LINE
8
BLACK
6
CONTINUOUS
10
45.0166709999999952
20
-77.5138159999999914
11
44.7612389999999962
21
-77.6926689999999951
0
LINE
8
BLACK
6
CONTINUOUS
10
44.7612389999999962
20
-77.6926689999999951
11
44.5259
21
-77.8972419999999914
0
LINE
8
BLACK
6
CONTINUOUS
10
44.5259
20
-77.8972419999999914
11
44.3132349999999988
21
-78.1252939999999967
0
LINE
8
BLACK
6
CONTINUOUS
10
44.3132349999999988
20
-78.1252939999999967
11
44.1255729999999957
21
-78.3743259999999964
0
LINE
8
BLACK
6
CONTINUOUS
10
44.1255729999999957
20
-78.3743259999999964
11
43.9649709999999985
21
-78.6416109999999975
0
LINE
8
BLACK
6
CONTINUOUS
10
43.9649709999999985
20
-78.6416109999999975
11
43.8331869999999952
21
-78.9242179999999962
0
LINE
8
BLACK
6
CONTINUOUS
10
43.8331869999999952
20
-78.9242179999999962
11
43.7316649999999996
21
-79.2190530000000024
0
LINE
8
BLACK
6
CONTINUOUS
10
43.7316649999999996
20
-79.2190530000000024
11
43.6615189999999984
21
-79.5228850000000023
0
LINE
8
BLACK
6
CONTINUOUS
10
43.6615189999999984
20
-79.5228850000000023
11
43.6425179999999955
21
-79.6776349999999951
0
LINE
8
BLACK
6
CONTINUOUS
10
43.6425179999999955
20
-79.6776349999999951
11
42.0521749999999983
21
-92.629959999999997
0
LINE
8
BLACK
6
CONTINUOUS
10
42.0521749999999983
20
-92.629959999999997
11
42.0521719999999988
21
-92.629965999999996
0
LINE
8
BLACK
6
CONTINUOUS
10
42.0521719999999988
20
-92.629965999999996
11
41.9971910000000008
21
-92.9417830000000009
0
LINE
8
BLACK
6
CONTINUOUS
10
41.9971910000000008
20
-92.9417830000000009
11
41.909914999999998
21
-93.2461500000000001
0
LINE
8
BLACK
6
CONTINUOUS
10
41.909914999999998
20
-93.2461500000000001
11
41.7913019999999946
21
-93.5397279999999967
0
LINE
8
BLACK
6
CONTINUOUS
10
41.7913019999999946
20
-93.5397279999999967
11
41.6426519999999982
21
-93.8192990000000009
0
LINE
8
BLACK
6
CONTINUOUS
10
41.6426519999999982
20
-93.8192990000000009
11
41.4655929999999984
21
-94.0818000000000012
0
LINE
8
BLACK
6
CONTINUOUS
10
41.4655929999999984
20
-94.0818000000000012
11
41.2620649999999998
21
-94.3243559999999945
0
LINE
8
BLACK
6
CONTINUOUS
10
41.2620649999999998
20
-94.3243559999999945
11
41.0342979999999997
21
-94.5443080000000009
0
LINE
8
BLACK
6
CONTINUOUS
10
41.0342979999999997
20
-94.5443080000000009
11
40.7847879999999989
21
-94.7392479999999892
0
LINE
8
BLACK
6
CONTINUOUS
10
40.7847879999999989
20
-94.7392479999999892
11
40.5162679999999966
21
-94.9070389999999975
0
LINE
8
BLACK
6
CONTINUOUS
10
40.5162679999999966
20
-94.9070389999999975
11
40.2316809999999947
21
-95.0458429999999908
0
LINE
8
BLACK
6
CONTINUOUS
10
40.2316809999999947
20
-95.0458429999999908
11
39.9341429999999988
21
-95.1541390000000007
0
LINE
8
BLACK
6
CONTINUOUS
10
39.9341429999999988
20
-95.1541390000000007
11
39.6269149999999968
21
-95.2307409999999948
0
LINE
8
BLACK
6
CONTINUOUS
10
39.6269149999999968
20
-95.2307409999999948
11
39.3133629999999954
21
-95.2748100000000022
0
LINE
8
BLACK
6
CONTINUOUS
10
39.3133629999999954
20
-95.2748100000000022
11
38.9969229999999953
21
-95.2858619999999945
0
LINE
8
BLACK
6
CONTINUOUS
10
38.9969229999999953
20
-95.2858619999999945
11
38.6810609999999997
21
-95.2637759999999929
0
LINE
8
BLACK
6
CONTINUOUS
10
38.6810609999999997
20
-95.2637759999999929
11
38.6810619999999972
21
-95.2637610000000024
0
LINE
8
BLACK
6
CONTINUOUS
10
38.6810619999999972
20
-95.2637610000000024
11
16.2743420000000008
21
-92.5125599999999935
0
LINE
8
BLACK
6
CONTINUOUS
10
16.2743420000000008
20
-92.5125599999999935
11
16.2743339999999996
21
-92.512557000000001
0
LINE
8
BLACK
6
CONTINUOUS
10
16.2743339999999996
20
-92.512557000000001
11
15.9625189999999986
21
-92.4575789999999955
0
LINE
8
BLACK
6
CONTINUOUS
10
15.9625189999999986
20
-92.4575789999999955
11
15.6581499999999991
21
-92.3703050000000019
0
LINE
8
BLACK
6
CONTINUOUS
10
15.6581499999999991
20
-92.3703050000000019
11
15.364571999999999
21
-92.2516929999999888
0
LINE
8
BLACK
6
CONTINUOUS
10
15.364571999999999
20
-92.2516929999999888
11
15.0850010000000001
21
-92.1030429999999996
0
LINE
8
BLACK
6
CONTINUOUS
10
15.0850010000000001
20
-92.1030429999999996
11
14.8224989999999988
21
-91.9259849999999972
0
LINE
8
BLACK
6
CONTINUOUS
10
14.8224989999999988
20
-91.9259849999999972
11
14.5799439999999993
21
-91.7224569999999915
0
LINE
8
BLACK
6
CONTINUOUS
10
14.5799439999999993
20
-91.7224569999999915
11
14.3599909999999991
21
-91.4946889999999939
0
LINE
8
BLACK
6
CONTINUOUS
10
14.3599909999999991
20
-91.4946889999999939
11
14.1650529999999986
21
-91.2451779999999957
0
LINE
8
BLACK
6
CONTINUOUS
10
14.1650529999999986
20
-91.2451779999999957
11
13.9972630000000002
21
-90.9766569999999888
0
LINE
8
BLACK
6
CONTINUOUS
10
13.9972630000000002
20
-90.9766569999999888
11
13.8584610000000001
21
-90.6920679999999919
0
LINE
8
BLACK
6
CONTINUOUS
10
13.8584610000000001
20
-90.6920679999999919
11
13.7501679999999986
21
-90.3945289999999915
0
LINE
8
BLACK
6
CONTINUOUS
10
13.7501679999999986
20
-90.3945289999999915
11
13.6735689999999988
21
-90.0873009999999965
0
LINE
8
BLACK
6
CONTINUOUS
10
13.6735689999999988
20
-90.0873009999999965
11
13.629505
21
-89.7737479999999977
0
LINE
8
BLACK
6
CONTINUOUS
10
13.629505
20
-89.7737479999999977
11
13.6184569999999994
21
-89.4573070000000001
0
LINE
8
BLACK
6
CONTINUOUS
10
13.6184569999999994
20
-89.4573070000000001
11
13.6405469999999998
21
-89.1414509999999893
0
LINE
8
BLACK
6
CONTINUOUS
10
13.6405469999999998
20
-89.1414509999999893
11
13.6405469999999998
21
-89.1414449999999903
0
LINE
8
BLACK
6
CONTINUOUS
10
13.6405469999999998
20
-89.1414449999999903
11
17.6744400000000006
21
-56.2887429999999966
0
LINE
8
BLACK
6
CONTINUOUS
10
17.6744400000000006
20
-56.2887429999999966
11
17.6744419999999991
21
-56.2887349999999955
0
LINE
8
BLACK
6
CONTINUOUS
10
17.6744419999999991
20
-56.2887349999999955
11
17.7238520000000008
21
-56.028495999999997
0
LINE
8
BLACK
6
CONTINUOUS
10
17.7238520000000008
20
-56.028495999999997
11
17.8068109999999997
21
-55.7769249999999985
0
LINE
8
BLACK
6
CONTINUOUS
10
17.8068109999999997
20
-55.7769249999999985
11
17.9218979999999988
21
-55.538336000000001
0
LINE
8
BLACK
6
CONTINUOUS
10
17.9218979999999988
20
-55.538336000000001
11
18.067145
21
-55.3168099999999967
0
LINE
8
BLACK
6
CONTINUOUS
10
18.067145
20
-55.3168099999999967
11
18.2400659999999988
21
-55.1161399999999944
0
LINE
8
BLACK
6
CONTINUOUS
10
18.2400659999999988
20
-55.1161399999999944
11
18.4377010000000006
21
-54.9397579999999977
0
LINE
8
BLACK
6
CONTINUOUS
10
18.4377010000000006
20
-54.9397579999999977
11
18.6566679999999998
21
-54.7906839999999988
0
LINE
8
BLACK
6
CONTINUOUS
10
18.6566679999999998
20
-54.7906839999999988
11
18.893221999999998
21
-54.6714679999999973
0
LINE
8
BLACK
6
CONTINUOUS
10
18.893221999999998
20
-54.6714679999999973
11
19.1433129999999991
21
-54.5841489999999965
0
LINE
8
BLACK
6
CONTINUOUS
10
19.1433129999999991
20
-54.5841489999999965
11
19.4026619999999994
21
-54.5302229999999994
0
LINE
8
BLACK
6
CONTINUOUS
10
19.4026619999999994
20
-54.5302229999999994
11
19.6668319999999994
21
-54.5106129999999993
0
LINE
8
BLACK
6
CONTINUOUS
10
19.6668319999999994
20
-54.5106129999999993
11
19.9312930000000001
21
-54.5256520000000009
0
LINE
8
BLACK
6
CONTINUOUS
10
19.9312930000000001
20
-54.5256520000000009
11
19.9313009999999977
21
-54.5256520000000009
0
LINE
8
BLACK
6
CONTINUOUS
10
19.9313009999999977
20
-54.5256520000000009
11
20.689273
21
-54.618783999999998
0
LINE
8
BLACK
6
CONTINUOUS
10
20.689273
20
-54.618783999999998
11
20.6893080000000005
21
-54.6187949999999987
0
LINE
8
BLACK
6
CONTINUOUS
10
20.6893080000000005
20
-54.6187949999999987
11
20.8176939999999995
21
-54.6345729999999961
0
LINE
8
BLACK
6
CONTINUOUS
10
20.8176939999999995
20
-54.6345729999999961
11
21.0764619999999994
21
-54.6323480000000004
0
LINE
8
BLACK
6
CONTINUOUS
10
21.0764619999999994
20
-54.6323480000000004
11
21.3327290000000005
21
-54.5963819999999984
0
LINE
8
BLACK
6
CONTINUOUS
10
21.3327290000000005
20
-54.5963819999999984
11
21.5821119999999986
21
-54.5272900000000007
0
LINE
8
BLACK
6
CONTINUOUS
10
21.5821119999999986
20
-54.5272900000000007
11
21.8203509999999987
21
-54.4262529999999956
0
LINE
8
BLACK
6
CONTINUOUS
10
21.8203509999999987
20
-54.4262529999999956
11
22.0433710000000005
21
-54.2949979999999996
0
LINE
8
BLACK
6
CONTINUOUS
10
22.0433710000000005
20
-54.2949979999999996
11
22.2473609999999979
21
-54.1357689999999963
0
LINE
8
BLACK
6
CONTINUOUS
10
22.2473609999999979
20
-54.1357689999999963
11
22.4288329999999974
21
-53.9512870000000007
0
LINE
8
BLACK
6
CONTINUOUS
10
22.4288329999999974
20
-53.9512870000000007
11
22.5846859999999978
21
-53.7447060000000008
0
LINE
8
BLACK
6
CONTINUOUS
10
22.5846859999999978
20
-53.7447060000000008
11
22.712256
21
-53.5195569999999989
0
LINE
8
BLACK
6
CONTINUOUS
10
22.712256
20
-53.5195569999999989
11
22.8093609999999991
21
-53.2796889999999976
0
LINE
8
BLACK
6
CONTINUOUS
10
22.8093609999999991
20
-53.2796889999999976
11
22.8743419999999986
21
-53.0292029999999954
0
LINE
8
BLACK
6
CONTINUOUS
10
22.8743419999999986
20
-53.0292029999999954
11
22.8902109999999972
21
-52.9007909999999981
0
LINE
8
BLACK
6
CONTINUOUS
10
22.8902109999999972
20
-52.9007909999999981
11
22.8902119999999982
21
-52.9007909999999981
0
LINE
8
BLACK
6
CONTINUOUS
10
22.8902119999999982
20
-52.9007909999999981
11
24.736266999999998
21
-37.9650040000000004
0
LINE
8
BLACK
6
CONTINUOUS
10
24.736266999999998
20
-37.9650040000000004
11
24.736266999999998
21
-37.9650029999999958
0
LINE
8
BLACK
6
CONTINUOUS
10
24.736266999999998
20
-37.9650029999999958
11
24.7362369999999991
21
-37.9649989999999988
0
LINE
8
BLACK
6
CONTINUOUS
10
24.7362369999999991
20
-37.9649989999999988
11
24.7521229999999974
21
-37.8364629999999948
0
LINE
8
BLACK
6
CONTINUOUS
10
24.7521229999999974
20
-37.8364629999999948
11
24.7500579999999992
21
-37.5774439999999998
0
LINE
8
BLACK
6
CONTINUOUS
10
24.7500579999999992
20
-37.5774439999999998
11
24.7141829999999985
21
-37.3209129999999973
0
LINE
8
BLACK
6
CONTINUOUS
10
24.7141829999999985
20
-37.3209129999999973
11
24.6451150000000005
21
-37.0712630000000019
0
LINE
8
BLACK
6
CONTINUOUS
10
24.6451150000000005
20
-37.0712630000000019
11
24.5440349999999974
21
-36.8327719999999985
0
LINE
8
BLACK
6
CONTINUOUS
10
24.5440349999999974
20
-36.8327719999999985
11
24.4126750000000001
21
-36.6095240000000004
0
LINE
8
BLACK
6
CONTINUOUS
10
24.4126750000000001
20
-36.6095240000000004
11
24.2532849999999982
21
-36.4053419999999974
0
LINE
8
BLACK
6
CONTINUOUS
10
24.2532849999999982
20
-36.4053419999999974
11
24.0685949999999984
21
-36.2237250000000017
0
LINE
8
BLACK
6
CONTINUOUS
10
24.0685949999999984
20
-36.2237250000000017
11
23.8617689999999989
21
-36.0677820000000011
0
LINE
8
BLACK
6
CONTINUOUS
10
23.8617689999999989
20
-36.0677820000000011
11
23.6363479999999981
21
-35.9401859999999971
0
LINE
8
BLACK
6
CONTINUOUS
10
23.6363479999999981
20
-35.9401859999999971
11
23.3961949999999987
21
-35.8431209999999965
0
LINE
8
BLACK
6
CONTINUOUS
10
23.3961949999999987
20
-35.8431209999999965
11
23.1454219999999999
21
-35.7782499999999999
0
LINE
8
BLACK
6
CONTINUOUS
10
23.1454219999999999
20
-35.7782499999999999
11
23.0168739999999978
21
-35.7624629999999968
0
LINE
8
BLACK
6
CONTINUOUS
10
23.0168739999999978
20
-35.7624629999999968
11
23.0168739999999978
21
-35.7624619999999993
0
LINE
8
BLACK
6
CONTINUOUS
10
23.0168739999999978
20
-35.7624619999999993
11
22.2465769999999985
21
-35.6678789999999992
0
LINE
8
BLACK
6
CONTINUOUS
10
22.2465769999999985
20
-35.6678789999999992
11
22.2465689999999974
21
-35.6678759999999997
0
LINE
8
BLACK
6
CONTINUOUS
10
22.2465689999999974
20
-35.6678759999999997
11
21.986342999999998
21
-35.618468
0
LINE
8
BLACK
6
CONTINUOUS
10
21.986342999999998
20
-35.618468
11
21.7347830000000002
21
-35.5355139999999992
0
LINE
8
BLACK
6
CONTINUOUS
10
21.7347830000000002
20
-35.5355139999999992
11
21.4962039999999988
21
-35.4204359999999951
0
LINE
8
BLACK
6
CONTINUOUS
10
21.4962039999999988
20
-35.4204359999999951
11
21.2746849999999981
21
-35.2752020000000002
0
LINE
8
BLACK
6
CONTINUOUS
10
21.2746849999999981
20
-35.2752020000000002
11
21.0740169999999978
21
-35.1022979999999976
0
LINE
8
BLACK
6
CONTINUOUS
10
21.0740169999999978
20
-35.1022979999999976
11
20.897634
21
-34.9046809999999965
0
LINE
8
BLACK
6
CONTINUOUS
10
20.897634
20
-34.9046809999999965
11
20.7485529999999976
21
-34.6857339999999965
0
LINE
8
BLACK
6
CONTINUOUS
10
20.7485529999999976
20
-34.6857339999999965
11
20.6293249999999979
21
-34.4491999999999976
0
LINE
8
BLACK
6
CONTINUOUS
10
20.6293249999999979
20
-34.4491999999999976
11
20.5419889999999974
21
-34.1991289999999992
0
LINE
8
BLACK
6
CONTINUOUS
10
20.5419889999999974
20
-34.1991289999999992
11
20.488039999999998
21
-33.9397969999999987
0
LINE
8
BLACK
6
CONTINUOUS
10
20.488039999999998
20
-33.9397969999999987
11
20.4684019999999975
21
-33.6756430000000009
0
LINE
8
BLACK
6
CONTINUOUS
10
20.4684019999999975
20
-33.6756430000000009
11
20.4834089999999982
21
-33.4111849999999961
0
LINE
8
BLACK
6
CONTINUOUS
10
20.4834089999999982
20
-33.4111849999999961
11
20.4834549999999993
21
-33.4111899999999977
0
LINE
8
BLACK
6
CONTINUOUS
10
20.4834549999999993
20
-33.4111899999999977
11
20.4834549999999993
21
-33.4111890000000002
0
LINE
8
BLACK
6
CONTINUOUS
10
20.4834549999999993
20
-33.4111890000000002
11
22.1957179999999994
21
-19.4659169999999975
0
LINE
8
BLACK
6
CONTINUOUS
10
22.1957179999999994
20
-19.4659169999999975
11
22.1957190000000004
21
-19.4659109999999984
0
LINE
8
BLACK
6
CONTINUOUS
10
22.1957190000000004
20
-19.4659109999999984
11
22.2507009999999994
21
-19.1540940000000006
0
LINE
8
BLACK
6
CONTINUOUS
10
22.2507009999999994
20
-19.1540940000000006
11
22.3379769999999986
21
-18.8497269999999979
0
LINE
8
BLACK
6
CONTINUOUS
10
22.3379769999999986
20
-18.8497269999999979
11
22.4565899999999985
21
-18.5561509999999998
0
LINE
8
BLACK
6
CONTINUOUS
10
22.4565899999999985
20
-18.5561509999999998
11
22.6052399999999984
21
-18.2765810000000002
0
LINE
8
BLACK
6
CONTINUOUS
10
22.6052399999999984
20
-18.2765810000000002
11
22.7822979999999973
21
-18.0140799999999999
0
LINE
8
BLACK
6
CONTINUOUS
10
22.7822979999999973
20
-18.0140799999999999
11
22.9858259999999994
21
-17.7715259999999979
0
LINE
8
BLACK
6
CONTINUOUS
10
22.9858259999999994
20
-17.7715259999999979
11
23.2135919999999984
21
-17.5515739999999987
0
LINE
8
BLACK
6
CONTINUOUS
10
23.2135919999999984
20
-17.5515739999999987
11
23.4631019999999992
21
-17.3566359999999982
0
LINE
8
BLACK
6
CONTINUOUS
10
23.4631019999999992
20
-17.3566359999999982
11
23.731621999999998
21
-17.1888459999999981
0
LINE
8
BLACK
6
CONTINUOUS
10
23.731621999999998
20
-17.1888459999999981
11
24.0162089999999999
21
-17.0500439999999998
0
LINE
8
BLACK
6
CONTINUOUS
10
24.0162089999999999
20
-17.0500439999999998
11
24.3137459999999983
21
-16.9417489999999979
0
LINE
8
BLACK
6
CONTINUOUS
10
24.3137459999999983
20
-16.9417489999999979
11
24.6209740000000004
21
-16.8651489999999988
0
LINE
8
BLACK
6
CONTINUOUS
10
24.6209740000000004
20
-16.8651489999999988
11
24.9345249999999972
21
-16.8210820000000005
0
LINE
8
BLACK
6
CONTINUOUS
10
24.9345249999999972
20
-16.8210820000000005
11
25.2509639999999997
21
-16.8100319999999996
0
LINE
8
BLACK
6
CONTINUOUS
10
25.2509639999999997
20
-16.8100319999999996
11
25.5668189999999989
21
-16.8321179999999977
0
LINE
8
BLACK
6
CONTINUOUS
10
25.5668189999999989
20
-16.8321179999999977
11
25.5668259999999989
21
-16.8321179999999977
0
LINE
8
BLACK
6
CONTINUOUS
10
25.5668259999999989
20
-16.8321179999999977
11
116.9454969999999889
21
-28.0520069999999997
0
LINE
8
BLACK
6
CONTINUOUS
10
116.9454969999999889
20
-28.0520069999999997
11
117.0056309999999939
21
-28.059391999999999
0
LINE
8
BLACK
6
CONTINUOUS
10
117.0056309999999939
20
-28.059391999999999
11
117.1264019999999988
21
-28.0692509999999977
0
LINE
8
BLACK
6
CONTINUOUS
10
117.1264019999999988
20
-28.0692509999999977
11
117.2474739999999969
21
-28.0741849999999999
0
LINE
8
BLACK
6
CONTINUOUS
10
117.2474739999999969
20
-28.0741849999999999
11
117.3080599999999976
21
-28.0741839999999989
0
LINE
8
BLACK
6
CONTINUOUS
10
117.3080599999999976
20
-28.0741839999999989
11
127.8576659999999947
21
-28.0741859999999974
0
LINE
8
BLACK
6
CONTINUOUS
10
127.8576659999999947
20
-28.0741859999999974
11
127.8576659999999947
21
-28.0741849999999999
0
LINE
8
BLACK
6
CONTINUOUS
10
127.8576659999999947
20
-28.0741849999999999
11
127.9182519999999954
21
-28.0741879999999995
0
LINE
8
BLACK
6
CONTINUOUS
10
127.9182519999999954
20
-28.0741879999999995
11
128.039322999999996
21
-28.0692539999999973
0
LINE
8
BLACK
6
CONTINUOUS
10
128.039322999999996
20
-28.0692539999999973
11
128.1600919999999917
21
-28.059393
0
LINE
8
BLACK
6
CONTINUOUS
10
128.1600919999999917
20
-28.059393
11
128.2202249999999992
21
-28.0520059999999987
0
LINE
8
BLACK
6
CONTINUOUS
10
128.2202249999999992
20
-28.0520059999999987
11
128.2202259999999967
21
-28.0520059999999987
0
LINE
8
BLACK
6
CONTINUOUS
10
128.2202259999999967
20
-28.0520059999999987
11
219.598905000000002
21
-16.8321159999999992
0
LINE
8
BLACK
6
CONTINUOUS
10
219.598905000000002
20
-16.8321159999999992
11
219.5989109999999869
21
-16.8321159999999992
0
LINE
8
BLACK
6
CONTINUOUS
10
219.5989109999999869
20
-16.8321159999999992
11
219.9147669999999835
21
-16.8100249999999996
0
LINE
8
BLACK
6
CONTINUOUS
10
219.9147669999999835
20
-16.8100249999999996
11
220.2312069999999835
21
-16.8210720000000009
0
LINE
8
BLACK
6
CONTINUOUS
10
219.7597499999999968
20
-16.8627409999999998
11
219.6049989999999923
21
-16.8817449999999987
0
LINE
8
BLACK
6
CONTINUOUS
10
219.6049989999999923
20
-16.8817449999999987
11
219.6049989999999923
21
-16.8817439999999976
0
LINE
8
BLACK
6
CONTINUOUS
10
219.6049989999999923
20
-16.8817439999999976
11
128.2263209999999845
21
-28.1016329999999996
0
LINE
8
BLACK
6
CONTINUOUS
10
128.2263209999999845
20
-28.1016329999999996
11
128.2263209999999845
21
-28.1016339999999971
0
LINE
8
BLACK
6
CONTINUOUS
10
128.2263209999999845
20
-28.1016339999999971
11
128.226319999999987
21
-28.1016329999999996
0
LINE
8
BLACK
6
CONTINUOUS
10
128.226319999999987
20
-28.1016329999999996
11
128.226319999999987
21
-28.1016339999999971
0
LINE
8
BLACK
6
CONTINUOUS
10
128.226319999999987
20
-28.1016339999999971
11
128.2263140000000021
21
-28.1016329999999996
0
LINE
8
BLACK
6
CONTINUOUS
10
128.2263140000000021
20
-28.1016329999999996
11
128.1037759999999821
21
-28.1141559999999977
0
LINE
8
BLACK
6
CONTINUOUS
10
128.1037759999999821
20
-28.1141559999999977
11
127.9808230000000009
21
-28.1216769999999983
0
LINE
8
BLACK
6
CONTINUOUS
10
127.9808230000000009
20
-28.1216769999999983
11
127.8576709999999963
21
-28.1241839999999996
0
LINE
8
BLACK
6
CONTINUOUS
10
127.8576709999999963
20
-28.1241839999999996
11
127.8576659999999947
21
-28.1241859999999981
0
LINE
8
BLACK
6
CONTINUOUS
10
127.8576659999999947
20
-28.1241859999999981
11
117.3080599999999976
21
-28.1241839999999996
0
LINE
8
BLACK
6
CONTINUOUS
10
117.3080599999999976
20
-28.1241839999999996
11
117.1849019999999939
21
-28.1216749999999998
0
LINE
8
BLACK
6
CONTINUOUS
10
117.1849019999999939
20
-28.1216749999999998
11
117.0619489999999985
21
-28.1141539999999992
0
LINE
8
BLACK
6
CONTINUOUS
10
117.0619489999999985
20
-28.1141539999999992
11
116.9394089999999977
21
-28.1016339999999971
0
LINE
8
BLACK
6
CONTINUOUS
10
116.9394089999999977
20
-28.1016339999999971
11
116.9394039999999961
21
-28.1016349999999981
0
LINE
8
BLACK
6
CONTINUOUS
10
116.9394039999999961
20
-28.1016349999999981
11
116.9394029999999987
21
-28.1016339999999971
0
LINE
8
BLACK
6
CONTINUOUS
10
116.9394029999999987
20
-28.1016339999999971
11
116.9394029999999987
21
-28.1016349999999981
0
LINE
8
BLACK
6
CONTINUOUS
10
116.9394029999999987
20
-28.1016349999999981
11
116.9394020000000012
21
-28.1016339999999971
0
LINE
8
BLACK
6
CONTINUOUS
10
116.9394020000000012
20
-28.1016339999999971
11
25.560731999999998
21
-16.8817459999999997
0
LINE
8
BLACK
6
CONTINUOUS
10
25.560731999999998
20
-16.8817459999999997
11
25.4059810000000006
21
-16.8627450000000003
0
LINE
8
BLACK
6
CONTINUOUS
10
25.4059810000000006
20
-16.8627450000000003
11
25.0942019999999992
21
-16.8573029999999981
0
LINE
8
BLACK
6
CONTINUOUS
10
25.0942019999999992
20
-16.8573029999999981
11
24.7835629999999973
21
-16.8844799999999999
0
LINE
8
BLACK
6
CONTINUOUS
10
24.7835629999999973
20
-16.8844799999999999
11
24.4774649999999987
21
-16.9439789999999988
0
LINE
8
BLACK
6
CONTINUOUS
10
24.4774649999999987
20
-16.9439789999999988
11
24.1792639999999999
21
-17.0351479999999995
0
LINE
8
BLACK
6
CONTINUOUS
10
24.1792639999999999
20
-17.0351479999999995
11
23.8922269999999983
21
-17.1569889999999994
0
LINE
8
BLACK
6
CONTINUOUS
10
23.8922269999999983
20
-17.1569889999999994
11
23.6194969999999991
21
-17.3081649999999989
0
LINE
8
BLACK
6
CONTINUOUS
10
23.6194969999999991
20
-17.3081649999999989
11
23.3640639999999991
21
-17.4870209999999986
0
LINE
8
BLACK
6
CONTINUOUS
10
23.3640639999999991
20
-17.4870209999999986
11
23.1287260000000003
21
-17.691597999999999
0
LINE
8
BLACK
6
CONTINUOUS
10
23.1287260000000003
20
-17.691597999999999
11
22.9160609999999991
21
-17.9196530000000003
0
LINE
8
BLACK
6
CONTINUOUS
10
22.9160609999999991
20
-17.9196530000000003
11
22.7283989999999996
21
-18.1686890000000005
0
LINE
8
BLACK
6
CONTINUOUS
10
22.7283989999999996
20
-18.1686890000000005
11
22.5677959999999977
21
-18.4359760000000001
0
LINE
8
BLACK
6
CONTINUOUS
10
22.5677959999999977
20
-18.4359760000000001
11
22.4360129999999991
21
-18.7185869999999994
0
LINE
8
BLACK
6
CONTINUOUS
10
22.4360129999999991
20
-18.7185869999999994
11
22.3344919999999973
21
-19.0134240000000005
0
LINE
8
BLACK
6
CONTINUOUS
10
22.3344919999999973
20
-19.0134240000000005
11
22.2643469999999972
21
-19.317259
0
LINE
8
BLACK
6
CONTINUOUS
10
22.2643469999999972
20
-19.317259
11
22.2453459999999978
21
-19.4720079999999989
0
LINE
8
BLACK
6
CONTINUOUS
10
22.2453459999999978
20
-19.4720079999999989
11
22.2453459999999978
21
-19.4720099999999974
0
LINE
8
BLACK
6
CONTINUOUS
10
22.2453459999999978
20
-19.4720099999999974
11
20.5330829999999978
21
-33.4172829999999976
0
LINE
8
BLACK
6
CONTINUOUS
10
20.5330829999999978
20
-33.4172829999999976
11
20.5330060000000003
21
-33.4175139999999971
0
LINE
8
BLACK
6
CONTINUOUS
10
20.5330060000000003
20
-33.4175139999999971
11
20.5172649999999983
21
-33.5457609999999988
0
LINE
8
BLACK
6
CONTINUOUS
10
20.5172649999999983
20
-33.5457609999999988
11
20.5195340000000002
21
-33.8046489999999977
0
LINE
8
BLACK
6
CONTINUOUS
10
20.5195340000000002
20
-33.8046489999999977
11
20.555572999999999
21
-34.0610259999999982
0
LINE
8
BLACK
6
CONTINUOUS
10
20.555572999999999
20
-34.0610259999999982
11
20.6247669999999985
21
-34.3105059999999966
0
LINE
8
BLACK
6
CONTINUOUS
10
20.6247669999999985
20
-34.3105059999999966
11
20.7259320000000002
21
-34.5488199999999992
0
LINE
8
BLACK
6
CONTINUOUS
10
20.7259320000000002
20
-34.5488199999999992
11
20.8573360000000001
21
-34.7718920000000011
0
LINE
8
BLACK
6
CONTINUOUS
10
20.8573360000000001
20
-34.7718920000000011
11
21.0167319999999975
21
-34.9759039999999999
0
LINE
8
BLACK
6
CONTINUOUS
10
21.0167319999999975
20
-34.9759039999999999
11
21.2013919999999985
21
-35.1573670000000007
0
LINE
8
BLACK
6
CONTINUOUS
10
21.2013919999999985
20
-35.1573670000000007
11
21.4081580000000002
21
-35.3131750000000011
0
LINE
8
BLACK
6
CONTINUOUS
10
21.4081580000000002
20
-35.3131750000000011
11
21.6334909999999994
21
-35.4406619999999961
0
LINE
8
BLACK
6
CONTINUOUS
10
21.6334909999999994
20
-35.4406619999999961
11
21.8735369999999989
21
-35.5376479999999972
0
LINE
8
BLACK
6
CONTINUOUS
10
21.8735369999999989
20
-35.5376479999999972
11
22.1241869999999992
21
-35.6024729999999963
0
LINE
8
BLACK
6
CONTINUOUS
10
22.1241869999999992
20
-35.6024729999999963
11
22.2526709999999994
21
-35.6182510000000008
0
LINE
8
BLACK
6
CONTINUOUS
10
22.2526709999999994
20
-35.6182510000000008
11
23.0229679999999988
21
-35.7128340000000009
0
LINE
8
BLACK
6
CONTINUOUS
10
23.0229679999999988
20
-35.7128340000000009
11
23.0229759999999999
21
-35.7128359999999958
0
LINE
8
BLACK
6
CONTINUOUS
10
23.0229759999999999
20
-35.7128359999999958
11
23.2833319999999979
21
-35.7622739999999979
0
LINE
8
BLACK
6
CONTINUOUS
10
23.2833319999999979
20
-35.7622739999999979
11
23.5350099999999998
21
-35.8452929999999981
0
LINE
8
BLACK
6
CONTINUOUS
10
23.5350099999999998
20
-35.8452929999999981
11
23.7736909999999995
21
-35.9604679999999988
0
LINE
8
BLACK
6
CONTINUOUS
10
23.7736909999999995
20
-35.9604679999999988
11
23.9952860000000001
21
-36.1058269999999979
0
LINE
8
BLACK
6
CONTINUOUS
10
23.9952860000000001
20
-36.1058269999999979
11
24.196000999999999
21
-36.2788800000000009
0
LINE
8
BLACK
6
CONTINUOUS
10
24.196000999999999
20
-36.2788800000000009
11
24.3723969999999994
21
-36.476662999999995
0
LINE
8
BLACK
6
CONTINUOUS
10
24.3723969999999994
20
-36.476662999999995
11
24.521452
21
-36.6957889999999978
0
LINE
8
BLACK
6
CONTINUOUS
10
24.521452
20
-36.6957889999999978
11
24.6406150000000004
21
-36.932504999999999
0
LINE
8
BLACK
6
CONTINUOUS
10
24.6406150000000004
20
-36.932504999999999
11
24.727843
21
-37.1827550000000002
0
LINE
8
BLACK
6
CONTINUOUS
10
24.727843
20
-37.1827550000000002
11
24.781642999999999
21
-37.4422530000000009
0
LINE
8
BLACK
6
CONTINUOUS
10
24.781642999999999
20
-37.4422530000000009
11
24.8010929999999981
21
-37.7065550000000016
0
LINE
8
BLACK
6
CONTINUOUS
10
24.8010929999999981
20
-37.7065550000000016
11
24.7858719999999977
21
-37.9709129999999959
0
LINE
8
BLACK
6
CONTINUOUS
10
24.7858719999999977
20
-37.9709129999999959
11
24.7858889999999974
21
-37.9711369999999988
0
LINE
8
BLACK
6
CONTINUOUS
10
24.7858889999999974
20
-37.9711369999999988
11
22.9398339999999976
21
-52.9069250000000011
0
LINE
8
BLACK
6
CONTINUOUS
10
22.9398339999999976
20
-52.9069250000000011
11
22.9398309999999981
21
-52.9069319999999976
0
LINE
8
BLACK
6
CONTINUOUS
10
22.9398309999999981
20
-52.9069319999999976
11
22.8902450000000002
21
-53.1669999999999945
0
LINE
8
BLACK
6
CONTINUOUS
10
22.8902450000000002
20
-53.1669999999999945
11
22.8071509999999975
21
-53.4183839999999961
0
LINE
8
BLACK
6
CONTINUOUS
10
22.8071509999999975
20
-53.4183839999999961
11
22.6919699999999978
21
-53.6567779999999956
0
LINE
8
BLACK
6
CONTINUOUS
10
22.6919699999999978
20
-53.6567779999999956
11
22.5466709999999999
21
-53.878107
0
LINE
8
BLACK
6
CONTINUOUS
10
22.5466709999999999
20
-53.878107
11
22.3737390000000005
21
-54.0785879999999963
0
LINE
8
BLACK
6
CONTINUOUS
10
22.3737390000000005
20
-54.0785879999999963
11
22.1761289999999995
21
-54.2547939999999969
0
LINE
8
BLACK
6
CONTINUOUS
10
22.1761289999999995
20
-54.2547939999999969
11
21.9572189999999985
21
-54.4037129999999962
0
LINE
8
BLACK
6
CONTINUOUS
10
21.9572189999999985
20
-54.4037129999999962
11
21.7207519999999974
21
-54.5227989999999991
0
LINE
8
BLACK
6
CONTINUOUS
10
21.7207519999999974
20
-54.5227989999999991
11
21.4707690000000007
21
-54.6100169999999991
0
LINE
8
BLACK
6
CONTINUOUS
10
21.4707690000000007
20
-54.6100169999999991
11
21.211544
21
-54.6638759999999948
0
LINE
8
BLACK
6
CONTINUOUS
10
21.211544
20
-54.6638759999999948
11
20.9475079999999991
21
-54.6834539999999976
0
LINE
8
BLACK
6
CONTINUOUS
10
20.9475079999999991
20
-54.6834539999999976
11
20.6831749999999985
21
-54.6684179999999955
0
LINE
8
BLACK
6
CONTINUOUS
10
20.6831749999999985
20
-54.6684179999999955
11
20.6831759999999996
21
-54.6684099999999944
0
LINE
8
BLACK
6
CONTINUOUS
10
20.6831759999999996
20
-54.6684099999999944
11
20.6831749999999985
21
-54.6684089999999969
0
LINE
8
BLACK
6
CONTINUOUS
10
20.6831749999999985
20
-54.6684089999999969
11
20.6831749999999985
21
-54.6684099999999944
0
LINE
8
BLACK
6
CONTINUOUS
10
20.6831749999999985
20
-54.6684099999999944
11
19.9252029999999998
21
-54.5752779999999973
0
LINE
8
BLACK
6
CONTINUOUS
10
19.9252029999999998
20
-54.5752779999999973
11
19.9252029999999998
21
-54.5752789999999948
0
LINE
8
BLACK
6
CONTINUOUS
10
19.9252029999999998
20
-54.5752789999999948
11
19.7967139999999979
21
-54.5594919999999988
0
LINE
8
BLACK
6
CONTINUOUS
10
19.7967139999999979
20
-54.5594919999999988
11
19.5378139999999973
21
-54.5617299999999972
0
LINE
8
BLACK
6
CONTINUOUS
10
19.5378139999999973
20
-54.5617299999999972
11
19.2814209999999981
21
-54.5977449999999962
0
LINE
8
BLACK
6
CONTINUOUS
10
19.2814209999999981
20
-54.5977449999999962
11
19.031922999999999
21
-54.666919
0
LINE
8
BLACK
6
CONTINUOUS
10
19.031922999999999
20
-54.666919
11
18.7935890000000008
21
-54.768068999999997
0
LINE
8
BLACK
6
CONTINUOUS
10
18.7935890000000008
20
-54.768068999999997
11
18.5704980000000006
21
-54.8994649999999993
0
LINE
8
BLACK
6
CONTINUOUS
10
18.5704980000000006
20
-54.8994649999999993
11
18.3664670000000001
21
-55.0588559999999987
0
LINE
8
BLACK
6
CONTINUOUS
10
18.3664670000000001
20
-55.0588559999999987
11
18.1849869999999996
21
-55.2435169999999971
0
LINE
8
BLACK
6
CONTINUOUS
10
18.1849869999999996
20
-55.2435169999999971
11
18.029164999999999
21
-55.4502880000000005
0
LINE
8
BLACK
6
CONTINUOUS
10
18.029164999999999
20
-55.4502880000000005
11
17.9016669999999998
21
-55.6756279999999961
0
LINE
8
BLACK
6
CONTINUOUS
10
17.9016669999999998
20
-55.6756279999999961
11
17.8046729999999975
21
-55.9156839999999988
0
LINE
8
BLACK
6
CONTINUOUS
10
17.8046729999999975
20
-55.9156839999999988
11
17.739844999999999
21
-56.1663469999999947
0
LINE
8
BLACK
6
CONTINUOUS
10
17.739844999999999
20
-56.1663469999999947
11
17.7240690000000001
21
-56.294836999999994
0
LINE
8
BLACK
6
CONTINUOUS
10
17.7240690000000001
20
-56.294836999999994
11
17.724067999999999
21
-56.294836999999994
0
LINE
8
BLACK
6
CONTINUOUS
10
17.724067999999999
20
-56.294836999999994
11
13.690175
21
-89.1475389999999948
0
LINE
8
BLACK
6
CONTINUOUS
10
13.690175
20
-89.1475389999999948
11
13.6711719999999985
21
-89.3022899999999993
0
LINE
8
BLACK
6
CONTINUOUS
10
13.6711719999999985
20
-89.3022899999999993
11
13.6657269999999986
21
-89.6140699999999981
0
LINE
8
BLACK
6
CONTINUOUS
10
13.6657269999999986
20
-89.6140699999999981
11
13.6929020000000001
21
-89.9247110000000021
0
LINE
8
BLACK
6
CONTINUOUS
10
13.6929020000000001
20
-89.9247110000000021
11
13.7523989999999987
21
-90.2308099999999911
0
LINE
8
BLACK
6
CONTINUOUS
10
13.7523989999999987
20
-90.2308099999999911
11
13.8435670000000002
21
-90.5290119999999945
0
LINE
8
BLACK
6
CONTINUOUS
10
13.8435670000000002
20
-90.5290119999999945
11
13.9654059999999998
21
-90.8160519999999991
0
LINE
8
BLACK
6
CONTINUOUS
10
13.9654059999999998
20
-90.8160519999999991
11
14.1165819999999993
21
-91.0887829999999923
0
LINE
8
BLACK
6
CONTINUOUS
10
14.1165819999999993
20
-91.0887829999999923
11
14.295437999999999
21
-91.3442170000000004
0
LINE
8
BLACK
6
CONTINUOUS
10
14.295437999999999
20
-91.3442170000000004
11
14.5000149999999994
21
-91.5795559999999966
0
LINE
8
BLACK
6
CONTINUOUS
10
14.5000149999999994
20
-91.5795559999999966
11
14.7280709999999999
21
-91.7922219999999953
0
LINE
8
BLACK
6
CONTINUOUS
10
14.7280709999999999
20
-91.7922219999999953
11
14.9771079999999994
21
-91.9798839999999984
0
LINE
8
BLACK
6
CONTINUOUS
10
14.9771079999999994
20
-91.9798839999999984
11
15.2443969999999993
21
-92.1404859999999957
0
LINE
8
BLACK
6
CONTINUOUS
10
15.2443969999999993
20
-92.1404859999999957
11
15.5270089999999996
21
-92.2722689999999943
0
LINE
8
BLACK
6
CONTINUOUS
10
15.5270089999999996
20
-92.2722689999999943
11
15.8218479999999992
21
-92.3737879999999905
0
LINE
8
BLACK
6
CONTINUOUS
10
15.8218479999999992
20
-92.3737879999999905
11
16.1256839999999997
21
-92.4439319999999896
0
LINE
8
BLACK
6
CONTINUOUS
10
16.1256839999999997
20
-92.4439319999999896
11
16.2804359999999981
21
-92.462931999999995
0
LINE
8
BLACK
6
CONTINUOUS
10
16.2804359999999981
20
-92.462931999999995
11
38.6871560000000017
21
-95.2141329999999897
0
LINE
8
BLACK
6
CONTINUOUS
10
38.6871560000000017
20
-95.2141329999999897
11
38.6872339999999966
21
-95.2141579999999976
0
LINE
8
BLACK
6
CONTINUOUS
10
38.6872339999999966
20
-95.2141579999999976
11
38.841904999999997
21
-95.2331489999999974
0
LINE
8
BLACK
6
CONTINUOUS
10
38.841904999999997
20
-95.2331489999999974
11
39.1536849999999959
21
-95.2385900000000021
0
LINE
8
BLACK
6
CONTINUOUS
10
39.1536849999999959
20
-95.2385900000000021
11
39.4643259999999998
21
-95.2114109999999982
0
LINE
8
BLACK
6
CONTINUOUS
10
39.4643259999999998
20
-95.2114109999999982
11
39.770423000000001
21
-95.1519100000000009
0
LINE
8
BLACK
6
CONTINUOUS
10
39.770423000000001
20
-95.1519100000000009
11
40.0686249999999973
21
-95.0607389999999981
0
LINE
8
BLACK
6
CONTINUOUS
10
40.0686249999999973
20
-95.0607389999999981
11
40.3556629999999998
21
-94.9388969999999972
0
LINE
8
BLACK
6
CONTINUOUS
10
40.3556629999999998
20
-94.9388969999999972
11
40.6283929999999955
21
-94.7877189999999956
0
LINE
8
BLACK
6
CONTINUOUS
10
40.6283929999999955
20
-94.7877189999999956
11
40.8838259999999991
21
-94.608862000000002
0
LINE
8
BLACK
6
CONTINUOUS
10
40.8838259999999991
20
-94.608862000000002
11
41.1191649999999953
21
-94.4042839999999899
0
LINE
8
BLACK
6
CONTINUOUS
10
41.1191649999999953
20
-94.4042839999999899
11
41.3318299999999965
21
-94.1762279999999947
0
LINE
8
BLACK
6
CONTINUOUS
10
41.3318299999999965
20
-94.1762279999999947
11
41.5194919999999996
21
-93.9271909999999934
0
LINE
8
BLACK
6
CONTINUOUS
10
41.5194919999999996
20
-93.9271909999999934
11
41.6800950000000014
21
-93.6599029999999999
0
LINE
8
BLACK
6
CONTINUOUS
10
41.6800950000000014
20
-93.6599029999999999
11
41.8118780000000001
21
-93.3772909999999996
0
LINE
8
BLACK
6
CONTINUOUS
10
41.8118780000000001
20
-93.3772909999999996
11
41.9133989999999983
21
-93.082453000000001
0
LINE
8
BLACK
6
CONTINUOUS
10
41.9133989999999983
20
-93.082453000000001
11
41.9835449999999994
21
-92.7786179999999945
0
LINE
8
BLACK
6
CONTINUOUS
10
41.9835449999999994
20
-92.7786179999999945
11
42.0025459999999953
21
-92.6238659999999925
0
LINE
8
BLACK
6
CONTINUOUS
10
42.0025459999999953
20
-92.6238659999999925
11
42.0025469999999999
21
-92.6238659999999925
0
LINE
8
BLACK
6
CONTINUOUS
10
42.0025469999999999
20
-92.6238659999999925
11
43.592889999999997
21
-79.6715420000000023
0
LINE
8
BLACK
6
CONTINUOUS
10
43.592889999999997
20
-79.6715420000000023
11
43.5928909999999945
21
-79.6715360000000032
0
LINE
8
BLACK
6
CONTINUOUS
10
43.5928909999999945
20
-79.6715360000000032
11
43.6478739999999945
21
-79.3597219999999908
0
LINE
8
BLACK
6
CONTINUOUS
10
43.6478739999999945
20
-79.3597219999999908
11
43.7351499999999973
21
-79.0553570000000008
0
LINE
8
BLACK
6
CONTINUOUS
10
43.7351499999999973
20
-79.0553570000000008
11
43.8537639999999982
21
-78.7617829999999941
0
LINE
8
BLACK
6
CONTINUOUS
10
43.8537639999999982
20
-78.7617829999999941
11
44.0024139999999946
21
-78.482215999999994
0
LINE
8
BLACK
6
CONTINUOUS
10
44.0024139999999946
20
-78.482215999999994
11
44.1794730000000015
21
-78.2197189999999978
0
LINE
8
BLACK
6
CONTINUOUS
10
44.1794730000000015
20
-78.2197189999999978
11
44.3830010000000001
21
-77.9771679999999918
0
LINE
8
BLACK
6
CONTINUOUS
10
44.3830010000000001
20
-77.9771679999999918
11
44.6107669999999956
21
-77.7572199999999896
0
LINE
8
BLACK
6
CONTINUOUS
10
44.6107669999999956
20
-77.7572199999999896
11
44.8602769999999964
21
-77.5622850000000028
0
LINE
8
BLACK
6
CONTINUOUS
10
44.8602769999999964
20
-77.5622850000000028
11
45.1287960000000012
21
-77.3944989999999962
0
LINE
8
BLACK
6
CONTINUOUS
10
45.1287960000000012
20
-77.3944989999999962
11
45.4133829999999961
21
-77.2556999999999903
0
LINE
8
BLACK
6
CONTINUOUS
10
45.4133829999999961
20
-77.2556999999999903
11
45.710918999999997
21
-77.1474089999999961
0
LINE
8
BLACK
6
CONTINUOUS
10
45.710918999999997
20
-77.1474089999999961
11
46.018144999999997
21
-77.0708119999999894
0
LINE
8
BLACK
6
CONTINUOUS
10
46.018144999999997
20
-77.0708119999999894
11
46.3316939999999988
21
-77.0267499999999927
0
LINE
8
BLACK
6
CONTINUOUS
10
46.3316939999999988
20
-77.0267499999999927
11
46.6481309999999993
21
-77.015703000000002
0
LINE
8
BLACK
6
CONTINUOUS
10
46.6481309999999993
20
-77.015703000000002
11
46.9636459999999971
21
-77.0377699999999948
0
LINE
8
BLACK
6
CONTINUOUS
10
46.9636459999999971
20
-77.0377699999999948
11
46.9639959999999945
21
-77.037745000000001
0
LINE
8
BLACK
6
CONTINUOUS
10
46.9639959999999945
20
-77.037745000000001
11
59.9159979999999948
21
-78.6280469999999951
0
LINE
8
BLACK
6
CONTINUOUS
10
59.9159979999999948
20
-78.6280469999999951
11
59.9160039999999938
21
-78.6280489999999901
0
LINE
8
BLACK
6
CONTINUOUS
10
59.9160039999999938
20
-78.6280489999999901
11
60.2278189999999967
21
-78.6830349999999896
0
LINE
8
BLACK
6
CONTINUOUS
10
60.2278189999999967
20
-78.6830349999999896
11
60.5321839999999938
21
-78.7703149999999965
0
LINE
8
BLACK
6
CONTINUOUS
10
60.5321839999999938
20
-78.7703149999999965
11
60.8257589999999979
21
-78.8889309999999995
0
LINE
8
BLACK
6
CONTINUOUS
10
60.8257589999999979
20
-78.8889309999999995
11
61.1053269999999955
21
-79.0375849999999929
0
LINE
8
BLACK
6
CONTINUOUS
10
61.1053269999999955
20
-79.0375849999999929
11
61.3678239999999988
21
-79.2146469999999994
0
LINE
8
BLACK
6
CONTINUOUS
10
61.3678239999999988
20
-79.2146469999999994
11
61.6103759999999951
21
-79.418177
0
LINE
8
BLACK
6
CONTINUOUS
10
61.6103759999999951
20
-79.418177
11
61.8303239999999974
21
-79.645945999999995
0
LINE
8
BLACK
6
CONTINUOUS
10
61.8303239999999974
20
-79.645945999999995
11
62.0252599999999958
21
-79.8954579999999908
0
LINE
8
BLACK
6
CONTINUOUS
10
62.0252599999999958
20
-79.8954579999999908
11
62.1930459999999954
21
-80.1639789999999977
0
LINE
8
BLACK
6
CONTINUOUS
10
62.1930459999999954
20
-80.1639789999999977
11
62.3318449999999942
21
-80.4485679999999945
0
LINE
8
BLACK
6
CONTINUOUS
10
62.3318449999999942
20
-80.4485679999999945
11
62.4401359999999954
21
-80.7461059999999975
0
LINE
8
BLACK
6
CONTINUOUS
10
62.4401359999999954
20
-80.7461059999999975
11
62.516732999999995
21
-81.0533339999999924
0
LINE
8
BLACK
6
CONTINUOUS
10
62.516732999999995
20
-81.0533339999999924
11
62.5607969999999938
21
-81.3668849999999964
0
LINE
8
BLACK
6
CONTINUOUS
10
62.5607969999999938
20
-81.3668849999999964
11
62.5718439999999987
21
-81.6833239999999989
0
LINE
8
BLACK
6
CONTINUOUS
10
62.5718439999999987
20
-81.6833239999999989
11
62.5497719999999973
21
-81.9989099999999951
0
LINE
8
BLACK
6
CONTINUOUS
10
62.5497719999999973
20
-81.9989099999999951
11
62.549792999999994
21
-81.9991899999999987
0
LINE
8
BLACK
6
CONTINUOUS
10
62.549792999999994
20
-81.9991899999999987
11
60.9593159999999941
21
-94.9514369999999985
0
LINE
8
BLACK
6
CONTINUOUS
10
60.9593159999999941
20
-94.9514369999999985
11
60.9593419999999995
21
-94.951439999999991
0
LINE
8
BLACK
6
CONTINUOUS
10
60.9593419999999995
20
-94.951439999999991
11
60.9403409999999965
21
-95.1061909999999955
0
LINE
8
BLACK
6
CONTINUOUS
10
60.9403409999999965
20
-95.1061909999999955
11
60.9348989999999944
21
-95.4179689999999994
0
LINE
8
BLACK
6
CONTINUOUS
10
60.9348989999999944
20
-95.4179689999999994
11
60.9620759999999962
21
-95.7286079999999941
0
LINE
8
BLACK
6
CONTINUOUS
10
60.9620759999999962
20
-95.7286079999999941
11
61.021573999999994
21
-96.0347039999999907
0
LINE
8
BLACK
6
CONTINUOUS
10
61.021573999999994
20
-96.0347039999999907
11
61.1127419999999972
21
-96.3329049999999967
0
LINE
8
BLACK
6
CONTINUOUS
10
61.1127419999999972
20
-96.3329049999999967
11
61.234579999999994
21
-96.6199419999999947
0
LINE
8
BLACK
6
CONTINUOUS
10
61.234579999999994
20
-96.6199419999999947
11
61.3857549999999961
21
-96.8926719999999904
0
LINE
8
BLACK
6
CONTINUOUS
10
61.3857549999999961
20
-96.8926719999999904
11
61.5646079999999998
21
-97.1481059999999985
0
LINE
8
BLACK
6
CONTINUOUS
10
61.5646079999999998
20
-97.1481059999999985
11
61.7691820000000007
21
-97.3834459999999922
0
LINE
8
BLACK
6
CONTINUOUS
10
61.7691820000000007
20
-97.3834459999999922
11
61.9972349999999963
21
-97.5961130000000026
0
LINE
8
BLACK
6
CONTINUOUS
10
61.9972349999999963
20
-97.5961130000000026
11
62.246266999999996
21
-97.7837770000000006
0
LINE
8
BLACK
6
CONTINUOUS
10
62.246266999999996
20
-97.7837770000000006
11
62.5135519999999971
21
-97.944383000000002
0
LINE
8
BLACK
6
CONTINUOUS
10
62.5135519999999971
20
-97.944383000000002
11
62.7961600000000004
21
-98.0761710000000022
0
LINE
8
BLACK
6
CONTINUOUS
10
62.7961600000000004
20
-98.0761710000000022
11
63.0909949999999995
21
-98.1776959999999974
0
LINE
8
BLACK
6
CONTINUOUS
10
63.0909949999999995
20
-98.1776959999999974
11
63.3948269999999994
21
-98.247846999999993
0
LINE
8
BLACK
6
CONTINUOUS
10
63.3948269999999994
20
-98.247846999999993
11
63.5495769999999993
21
-98.2668510000000026
0
LINE
8
BLACK
6
CONTINUOUS
10
63.5495769999999993
20
-98.2668510000000026
11
104.8642749999999921
21
-103.3396630000000016
0
LINE
8
BLACK
6
CONTINUOUS
10
104.8642749999999921
20
-103.3396630000000016
11
104.8642770000000013
21
-103.3396499999999918
0
LINE
8
BLACK
6
CONTINUOUS
10
104.8642770000000013
20
-103.3396499999999918
11
105.0190119999999894
21
-103.3586529999999897
0
LINE
8
BLACK
6
CONTINUOUS
10
105.0190119999999894
20
-103.3586529999999897
11
105.3307590000000005
21
-103.364104999999995
0
LINE
8
BLACK
6
CONTINUOUS
10
105.3307590000000005
20
-103.364104999999995
11
105.6413679999999999
21
-103.3369429999999909
0
LINE
8
BLACK
6
CONTINUOUS
10
105.6413679999999999
20
-103.3369429999999909
11
105.9474369999999936
21
-103.2774649999999923
0
LINE
8
BLACK
6
CONTINUOUS
10
105.9474369999999936
20
-103.2774649999999923
11
106.2456119999999942
21
-103.1863219999999899
0
LINE
8
BLACK
6
CONTINUOUS
10
106.2456119999999942
20
-103.1863219999999899
11
106.532629
21
-103.0645129999999909
0
LINE
8
BLACK
6
CONTINUOUS
10
106.532629
20
-103.0645129999999909
11
106.805341999999996
21
-102.9133719999999954
0
LINE
8
BLACK
6
CONTINUOUS
10
106.805341999999996
20
-102.9133719999999954
11
107.0607629999999943
21
-102.7345539999999886
0
LINE
8
BLACK
6
CONTINUOUS
10
107.0607629999999943
20
-102.7345539999999886
11
107.2960959999999915
21
-102.5300199999999933
0
LINE
8
BLACK
6
CONTINUOUS
10
107.2960959999999915
20
-102.5300199999999933
11
107.5087619999999902
21
-102.3020089999999982
0
LINE
8
BLACK
6
CONTINUOUS
10
107.5087619999999902
20
-102.3020089999999982
11
107.6964309999999898
21
-102.0530189999999919
0
LINE
8
BLACK
6
CONTINUOUS
10
107.6964309999999898
20
-102.0530189999999919
11
107.8570479999999918
21
-101.785776999999996
0
LINE
8
BLACK
6
CONTINUOUS
10
107.8570479999999918
20
-101.785776999999996
11
107.9888529999999918
21
-101.5032119999999907
0
LINE
8
BLACK
6
CONTINUOUS
10
107.9888529999999918
20
-101.5032119999999907
11
108.0904019999999974
21
-101.2084179999999947
0
LINE
8
BLACK
6
CONTINUOUS
10
108.0904019999999974
20
-101.2084179999999947
11
108.1605829999999884
21
-100.9046239999999983
0
LINE
8
BLACK
6
CONTINUOUS
10
108.1605829999999884
20
-100.9046239999999983
11
108.1796039999999977
21
-100.7498919999999885
0
LINE
8
BLACK
6
CONTINUOUS
10
108.1796039999999977
20
-100.7498919999999885
11
108.1796049999999951
21
-100.7498919999999885
0
LINE
8
BLACK
6
CONTINUOUS
10
108.1796049999999951
20
-100.7498919999999885
11
108.1796049999999951
21
-100.749890999999991
0
LINE
8
BLACK
6
CONTINUOUS
10
108.1796049999999951
20
-100.749890999999991
11
109.8144769999999966
21
-87.4532459999999929
0
LINE
8
BLACK
6
CONTINUOUS
10
109.8144769999999966
20
-87.4532459999999929
11
109.8686560000000014
21
-87.1451419999999928
0
LINE
8
BLACK
6
CONTINUOUS
10
109.8686560000000014
20
-87.1451419999999928
11
109.9543659999999932
21
-86.8442799999999977
0
LINE
8
BLACK
6
CONTINUOUS
10
109.9543659999999932
20
-86.8442799999999977
11
110.0706890000000016
21
-86.5538789999999949
0
LINE
8
BLACK
6
CONTINUOUS
10
110.0706890000000016
20
-86.5538789999999949
11
110.2163819999999959
21
-86.2770439999999894
0
LINE
8
BLACK
6
CONTINUOUS
10
110.2163819999999959
20
-86.2770439999999894
11
110.38988599999999
21
-86.016736999999992
0
LINE
8
BLACK
6
CONTINUOUS
10
110.38988599999999
20
-86.016736999999992
11
110.5893449999999945
21
-85.7757390000000015
0
LINE
8
BLACK
6
CONTINUOUS
10
110.5893449999999945
20
-85.7757390000000015
11
110.8126279999999895
21
-85.5566299999999984
0
LINE
8
BLACK
6
CONTINUOUS
10
110.8126279999999895
20
-85.5566299999999984
11
111.057344999999998
21
-85.3617529999999931
0
LINE
8
BLACK
6
CONTINUOUS
10
111.057344999999998
20
-85.3617529999999931
11
111.3208799999999883
21
-85.1931909999999988
0
LINE
8
BLACK
6
CONTINUOUS
10
111.3208799999999883
20
-85.1931909999999988
11
111.6004140000000007
21
-85.0527469999999965
0
LINE
8
BLACK
6
CONTINUOUS
10
111.6004140000000007
20
-85.0527469999999965
11
111.892957999999993
21
-84.9419230000000027
0
LINE
8
BLACK
6
CONTINUOUS
10
111.892957999999993
20
-84.9419230000000027
11
112.1953829999999925
21
-84.8619039999999956
0
LINE
8
BLACK
6
CONTINUOUS
10
112.1953829999999925
20
-84.8619039999999956
11
112.5044539999999955
21
-84.8135469999999998
0
LINE
8
BLACK
6
CONTINUOUS
10
112.5044539999999955
20
-84.8135469999999998
11
112.8168679999999995
21
-84.7973679999999916
0
LINE
8
BLACK
6
CONTINUOUS
10
112.8168679999999995
20
-84.7973679999999916
11
112.8168679999999995
21
-84.7974040000000002
0
LINE
8
BLACK
6
CONTINUOUS
10
112.8168679999999995
20
-84.7974040000000002
11
132.3516989999999964
21
-84.7973999999999961
0
LINE
8
BLACK
6
CONTINUOUS
10
132.3516989999999964
20
-84.7973999999999961
11
132.6641479999999831
21
-84.8135789999999901
0
LINE
8
BLACK
6
CONTINUOUS
10
132.6641479999999831
20
-84.8135789999999901
11
132.9732549999999947
21
-84.8619449999999915
0
LINE
8
BLACK
6
CONTINUOUS
10
132.9732549999999947
20
-84.8619449999999915
11
133.2757129999999961
21
-84.9419789999999892
0
LINE
8
BLACK
6
CONTINUOUS
10
133.2757129999999961
20
-84.9419789999999892
11
133.568286999999998
21
-85.052825999999996
0
LINE
8
BLACK
6
CONTINUOUS
10
133.568286999999998
20
-85.052825999999996
11
133.8478470000000016
21
-85.1932989999999961
0
LINE
8
BLACK
6
CONTINUOUS
10
133.8478470000000016
20
-85.1932989999999961
11
134.1114019999999982
21
-85.361896999999999
0
LINE
8
BLACK
6
CONTINUOUS
10
134.1114019999999982
20
-85.361896999999999
11
134.3561329999999998
21
-85.5568150000000003
0
LINE
8
BLACK
6
CONTINUOUS
10
134.3561329999999998
20
-85.5568150000000003
11
134.5794219999999939
21
-85.7759689999999893
0
LINE
8
BLACK
6
CONTINUOUS
10
134.5794219999999939
20
-85.7759689999999893
11
134.7788799999999867
21
-86.0170129999999915
0
LINE
8
BLACK
6
CONTINUOUS
10
134.7788799999999867
20
-86.0170129999999915
11
134.9523749999999893
21
-86.2773710000000023
0
LINE
8
BLACK
6
CONTINUOUS
10
134.9523749999999893
20
-86.2773710000000023
11
135.0980490000000032
21
-86.5542559999999952
0
LINE
8
BLACK
6
CONTINUOUS
10
135.0980490000000032
20
-86.5542559999999952
11
135.2143460000000061
21
-86.8447060000000022
0
LINE
8
BLACK
6
CONTINUOUS
10
135.2143460000000061
20
-86.8447060000000022
11
135.3000189999999918
21
-87.1456159999999898
0
LINE
8
BLACK
6
CONTINUOUS
10
135.3000189999999918
20
-87.1456159999999898
11
135.3541519999999991
21
-87.453756999999996
0
LINE
8
BLACK
6
CONTINUOUS
10
135.3541519999999991
20
-87.453756999999996
11
135.3541549999999916
21
-87.4537639999999925
0
LINE
8
BLACK
6
CONTINUOUS
10
135.3541549999999916
20
-87.4537639999999925
11
136.9865680000000054
21
-100.7493189999999998
0
LINE
8
BLACK
6
CONTINUOUS
10
136.9865680000000054
20
-100.7493189999999998
11
136.9865680000000054
21
-100.7493199999999973
0
LINE
8
BLACK
6
CONTINUOUS
10
136.9865680000000054
20
-100.7493199999999973
11
136.9865969999999891
21
-100.7493159999999932
0
LINE
8
BLACK
6
CONTINUOUS
10
136.9865969999999891
20
-100.7493159999999932
11
137.0055949999999996
21
-100.9040669999999977
0
LINE
8
BLACK
6
CONTINUOUS
10
137.0055949999999996
20
-100.9040669999999977
11
137.0757370000000037
21
-101.20790199999999
0
LINE
8
BLACK
6
CONTINUOUS
10
137.0757370000000037
20
-101.20790199999999
11
137.1772540000000049
21
-101.5027410000000003
0
LINE
8
BLACK
6
CONTINUOUS
10
137.1772540000000049
20
-101.5027410000000003
11
137.3090339999999969
21
-101.7853530000000006
0
LINE
8
BLACK
6
CONTINUOUS
10
137.3090339999999969
20
-101.7853530000000006
11
137.469633999999985
21
-102.0526419999999916
0
LINE
8
BLACK
6
CONTINUOUS
10
137.469633999999985
20
-102.0526419999999916
11
137.6572929999999815
21
-102.3016799999999904
0
LINE
8
BLACK
6
CONTINUOUS
10
137.6572929999999815
20
-102.3016799999999904
11
137.8699560000000019
21
-102.5297369999999972
0
LINE
8
BLACK
6
CONTINUOUS
10
137.8699560000000019
20
-102.5297369999999972
11
138.105292999999989
21
-102.7343149999999952
0
LINE
8
BLACK
6
CONTINUOUS
10
138.105292999999989
20
-102.7343149999999952
11
138.3607250000000022
21
-102.9131730000000005
0
LINE
8
BLACK
6
CONTINUOUS
10
138.3607250000000022
20
-102.9131730000000005
11
138.6334530000000029
21
-103.064351000000002
0
LINE
8
BLACK
6
CONTINUOUS
10
138.6334530000000029
20
-103.064351000000002
11
138.9204900000000009
21
-103.1861919999999913
0
LINE
8
BLACK
6
CONTINUOUS
10
138.9204900000000009
20
-103.1861919999999913
11
139.2186910000000069
21
-103.277362999999994
0
LINE
8
BLACK
6
CONTINUOUS
10
139.2186910000000069
20
-103.277362999999994
11
139.5247880000000009
21
-103.3368629999999939
0
LINE
8
BLACK
6
CONTINUOUS
10
139.5247880000000009
20
-103.3368629999999939
11
139.8354280000000074
21
-103.3640410000000003
0
LINE
8
BLACK
6
CONTINUOUS
10
139.8354280000000074
20
-103.3640410000000003
11
140.1472059999999829
21
-103.3585989999999981
0
LINE
8
BLACK
6
CONTINUOUS
10
140.1472059999999829
20
-103.3585989999999981
11
140.3019569999999874
21
-103.3395979999999952
0
LINE
8
BLACK
6
CONTINUOUS
10
140.3019569999999874
20
-103.3395979999999952
11
181.6160840000000007
21
-98.2668599999999941
0
LINE
8
BLACK
6
CONTINUOUS
10
181.6160840000000007
20
-98.2668599999999941
11
181.61612599999998
21
-98.2668630000000007
0
LINE
8
BLACK
6
CONTINUOUS
10
181.61612599999998
20
-98.2668630000000007
11
181.6161519999999996
21
-98.2668510000000026
0
LINE
8
BLACK
6
CONTINUOUS
10
181.6161519999999996
20
-98.2668510000000026
11
181.6161479999999813
21
-98.2668139999999966
0
LINE
8
BLACK
6
CONTINUOUS
10
181.6161479999999813
20
-98.2668139999999966
11
181.7708989999999858
21
-98.2478139999999911
0
LINE
8
BLACK
6
CONTINUOUS
10
181.7708989999999858
20
-98.2478139999999911
11
182.0747329999999806
21
-98.177669999999992
0
LINE
8
BLACK
6
CONTINUOUS
10
182.0747329999999806
20
-98.177669999999992
11
182.3695709999999792
21
-98.0761499999999984
0
LINE
8
BLACK
6
CONTINUOUS
10
182.3695709999999792
20
-98.0761499999999984
11
182.6521819999999821
21
-97.9443669999999997
0
LINE
8
BLACK
6
CONTINUOUS
10
182.6521819999999821
20
-97.9443669999999997
11
182.9194699999999898
21
-97.7837650000000025
0
LINE
8
BLACK
6
CONTINUOUS
10
182.9194699999999898
20
-97.7837650000000025
11
183.1685059999999794
21
-97.5961039999999969
0
LINE
8
BLACK
6
CONTINUOUS
10
183.1685059999999794
20
-97.5961039999999969
11
183.3965619999999888
21
-97.3834389999999956
0
LINE
8
BLACK
6
CONTINUOUS
10
183.3965619999999888
20
-97.3834389999999956
11
183.6011389999999892
21
-97.1481009999999969
0
LINE
8
BLACK
6
CONTINUOUS
10
183.6011389999999892
20
-97.1481009999999969
11
183.7799949999999853
21
-96.8926680000000005
0
LINE
8
BLACK
6
CONTINUOUS
10
183.7799949999999853
20
-96.8926680000000005
11
183.9311709999999778
21
-96.6199390000000022
0
LINE
8
BLACK
6
CONTINUOUS
10
183.9311709999999778
20
-96.6199390000000022
11
184.0530119999999954
21
-96.3329009999999926
0
LINE
8
BLACK
6
CONTINUOUS
10
184.0530119999999954
20
-96.3329009999999926
11
184.1441810000000032
21
-96.0347000000000008
0
LINE
8
BLACK
6
CONTINUOUS
10
184.1441810000000032
20
-96.0347000000000008
11
184.2036789999999939
21
-95.7286019999999951
0
LINE
8
BLACK
6
CONTINUOUS
10
184.2036789999999939
20
-95.7286019999999951
11
184.2308559999999886
21
-95.4179630000000003
0
LINE
8
BLACK
6
CONTINUOUS
10
184.2308559999999886
20
-95.4179630000000003
11
184.2254140000000007
21
-95.1061839999999989
0
LINE
8
BLACK
6
CONTINUOUS
10
184.2254140000000007
20
-95.1061839999999989
11
184.2064120000000003
21
-94.9514329999999944
0
LINE
8
BLACK
6
CONTINUOUS
10
184.2064120000000003
20
-94.9514329999999944
11
182.6159370000000024
21
-81.9991839999999996
0
LINE
8
BLACK
6
CONTINUOUS
10
182.6159370000000024
20
-81.9991839999999996
11
182.6159370000000024
21
-81.9991770000000031
0
LINE
8
BLACK
6
CONTINUOUS
10
182.6159370000000024
20
-81.9991770000000031
11
182.5938479999999799
21
-81.6833209999999923
0
LINE
8
BLACK
6
CONTINUOUS
10
182.5938479999999799
20
-81.6833209999999923
11
182.6048959999999965
21
-81.3668789999999973
0
LINE
8
BLACK
6
CONTINUOUS
10
182.6048959999999965
20
-81.3668789999999973
11
182.6489599999999882
21
-81.053325000000001
0
LINE
8
BLACK
6
CONTINUOUS
10
182.6489599999999882
20
-81.053325000000001
11
182.7255590000000041
21
-80.7460949999999968
0
LINE
8
BLACK
6
CONTINUOUS
10
182.7255590000000041
20
-80.7460949999999968
11
182.8338519999999789
21
-80.4485549999999989
0
LINE
8
BLACK
6
CONTINUOUS
10
182.8338519999999789
20
-80.4485549999999989
11
182.9726529999999798
21
-80.1639639999999929
0
LINE
8
BLACK
6
CONTINUOUS
10
182.9726529999999798
20
-80.1639639999999929
11
183.1404419999999789
21
-79.8954420000000027
0
LINE
8
BLACK
6
CONTINUOUS
10
183.1404419999999789
20
-79.8954420000000027
11
183.3353799999999865
21
-79.6459289999999953
0
LINE
8
BLACK
6
CONTINUOUS
10
183.3353799999999865
20
-79.6459289999999953
11
183.5553309999999954
21
-79.4181590000000028
0
LINE
8
BLACK
6
CONTINUOUS
10
183.5553309999999954
20
-79.4181590000000028
11
183.7978860000000054
21
-79.2146290000000022
0
LINE
8
BLACK
6
CONTINUOUS
10
183.7978860000000054
20
-79.2146290000000022
11
184.0603869999999915
21
-79.0375669999999957
0
LINE
8
BLACK
6
CONTINUOUS
10
184.0603869999999915
20
-79.0375669999999957
11
184.3399579999999958
21
-78.8889149999999972
0
LINE
8
BLACK
6
CONTINUOUS
10
184.3399579999999958
20
-78.8889149999999972
11
184.6335359999999923
21
-78.7702989999999943
0
LINE
8
BLACK
6
CONTINUOUS
10
184.6335359999999923
20
-78.7702989999999943
11
184.9379050000000007
21
-78.6830209999999965
0
LINE
8
BLACK
6
CONTINUOUS
10
184.9379050000000007
20
-78.6830209999999965
11
185.2497290000000021
21
-78.628036999999992
0
LINE
8
BLACK
6
CONTINUOUS
10
185.2497290000000021
20
-78.628036999999992
11
185.2497299999999996
21
-78.6280489999999901
0
LINE
8
BLACK
6
CONTINUOUS
10
185.2497299999999996
20
-78.6280489999999901
11
198.2019789999999944
21
-77.0377110000000016
0
LINE
8
BLACK
6
CONTINUOUS
10
198.2019789999999944
20
-77.0377110000000016
11
198.2019849999999792
21
-77.0377110000000016
0
LINE
8
BLACK
6
CONTINUOUS
10
198.2019849999999792
20
-77.0377110000000016
11
198.5178420000000017
21
-77.0156169999999918
0
LINE
8
BLACK
6
CONTINUOUS
10
198.5178420000000017
20
-77.0156169999999918
11
198.8342849999999942
21
-77.0266609999999901
0
LINE
8
BLACK
6
CONTINUOUS
10
198.8342849999999942
20
-77.0266609999999901
11
199.1478400000000022
21
-77.0707239999999985
0
LINE
8
BLACK
6
CONTINUOUS
10
199.1478400000000022
20
-77.0707239999999985
11
199.4550699999999779
21
-77.1473239999999976
0
LINE
8
BLACK
6
CONTINUOUS
10
199.4550699999999779
20
-77.1473239999999976
11
199.7526100000000042
21
-77.2556189999999958
0
LINE
8
BLACK
6
CONTINUOUS
10
199.7526100000000042
20
-77.2556189999999958
11
200.0371989999999869
21
-77.3944249999999982
0
LINE
8
BLACK
6
CONTINUOUS
10
200.0371989999999869
20
-77.3944249999999982
11
200.3057189999999821
21
-77.5622199999999964
0
LINE
8
BLACK
6
CONTINUOUS
10
200.3057189999999821
20
-77.5622199999999964
11
200.5552279999999996
21
-77.7571650000000005
0
LINE
8
BLACK
6
CONTINUOUS
10
200.5552279999999996
20
-77.7571650000000005
11
200.7829909999999813
21
-77.9771240000000034
0
LINE
8
BLACK
6
CONTINUOUS
10
200.7829909999999813
20
-77.9771240000000034
11
200.9865120000000047
21
-78.2196869999999933
0
LINE
8
BLACK
6
CONTINUOUS
10
200.9865120000000047
20
-78.2196869999999933
11
201.1635619999999847
21
-78.4821969999999993
0
LINE
8
BLACK
6
CONTINUOUS
10
201.1635619999999847
20
-78.4821969999999993
11
201.3122009999999875
21
-78.7617759999999976
0
LINE
8
BLACK
6
CONTINUOUS
10
201.3122009999999875
20
-78.7617759999999976
11
201.430800000000005
21
-79.0553609999999907
0
LINE
8
BLACK
6
CONTINUOUS
10
201.430800000000005
20
-79.0553609999999907
11
201.5180589999999938
21
-79.3597350000000006
0
LINE
8
BLACK
6
CONTINUOUS
10
201.5180589999999938
20
-79.3597350000000006
11
201.5729340000000036
21
-79.6710599999999971
0
LINE
8
BLACK
6
CONTINUOUS
10
201.5729340000000036
20
-79.6710599999999971
11
201.57309699999999
21
-79.6715540000000004
0
LINE
8
BLACK
6
CONTINUOUS
10
201.57309699999999
20
-79.6715540000000004
11
203.1632290000000012
21
-92.6238170000000025
0
LINE
8
BLACK
6
CONTINUOUS
10
203.1632290000000012
20
-92.6238170000000025
11
203.1632129999999847
21
-92.6240269999999981
0
LINE
8
BLACK
6
CONTINUOUS
10
203.1632129999999847
20
-92.6240269999999981
11
203.1821909999999889
21
-92.7785729999999944
0
LINE
8
BLACK
6
CONTINUOUS
10
203.1821909999999889
20
-92.7785729999999944
11
203.2523419999999987
21
-93.0824089999999984
0
LINE
8
BLACK
6
CONTINUOUS
10
203.2523419999999987
20
-93.0824089999999984
11
203.3538669999999797
21
-93.377248999999992
0
LINE
8
BLACK
6
CONTINUOUS
10
203.3538669999999797
20
-93.377248999999992
11
203.4856539999999825
21
-93.6598609999999923
0
LINE
8
BLACK
6
CONTINUOUS
10
203.4856539999999825
20
-93.6598609999999923
11
203.6462599999999838
21
-93.927149
0
LINE
8
BLACK
6
CONTINUOUS
10
203.6462599999999838
20
-93.927149
11
203.8339249999999936
21
-94.1761869999999988
0
LINE
8
BLACK
6
CONTINUOUS
10
203.8339249999999936
20
-94.1761869999999988
11
204.0465930000000014
21
-94.4042439999999914
0
LINE
8
BLACK
6
CONTINUOUS
10
204.0465930000000014
20
-94.4042439999999914
11
204.2819339999999784
21
-94.6088219999999893
0
LINE
8
BLACK
6
CONTINUOUS
10
204.2819339999999784
20
-94.6088219999999893
11
204.537368999999984
21
-94.7876799999999946
0
LINE
8
BLACK
6
CONTINUOUS
10
204.537368999999984
20
-94.7876799999999946
11
204.8100999999999772
21
-94.9388589999999937
0
LINE
8
BLACK
6
CONTINUOUS
10
204.8100999999999772
20
-94.9388589999999937
11
205.097139999999996
21
-95.0607029999999895
0
LINE
8
BLACK
6
CONTINUOUS
10
205.097139999999996
20
-95.0607029999999895
11
205.3953429999999969
21
-95.1518760000000015
0
LINE
8
BLACK
6
CONTINUOUS
10
205.3953429999999969
20
-95.1518760000000015
11
205.7014419999999859
21
-95.2113789999999938
0
LINE
8
BLACK
6
CONTINUOUS
10
205.7014419999999859
20
-95.2113789999999938
11
206.0120849999999848
21
-95.23856099999999
0
LINE
8
BLACK
6
CONTINUOUS
10
206.0120849999999848
20
-95.23856099999999
11
206.3238669999999786
21
-95.233122999999992
0
LINE
8
BLACK
6
CONTINUOUS
10
206.3238669999999786
20
-95.233122999999992
11
206.4786179999999831
21
-95.2141249999999957
0
LINE
8
BLACK
6
CONTINUOUS
10
206.4786179999999831
20
-95.2141249999999957
11
206.4786189999999806
21
-95.2141249999999957
0
LINE
8
BLACK
6
CONTINUOUS
10
206.4786189999999806
20
-95.2141249999999957
11
228.8852909999999952
21
-92.462931999999995
0
LINE
8
BLACK
6
CONTINUOUS
10
228.8852909999999952
20
-92.462931999999995
11
228.8853829999999903
21
-92.4629379999999941
0
LINE
8
BLACK
6
CONTINUOUS
10
228.8853829999999903
20
-92.4629379999999941
11
229.0400449999999921
21
-92.4439479999999918
0
LINE
8
BLACK
6
CONTINUOUS
10
229.0400449999999921
20
-92.4439479999999918
11
229.3438789999999869
21
-92.3737989999999911
0
LINE
8
BLACK
6
CONTINUOUS
10
229.3438789999999869
20
-92.3737989999999911
11
229.6387169999999855
21
-92.2722759999999909
0
LINE
8
BLACK
6
CONTINUOUS
10
229.6387169999999855
20
-92.2722759999999909
11
229.9213269999999909
21
-92.1404899999999998
0
LINE
8
BLACK
6
CONTINUOUS
10
229.9213269999999909
20
-92.1404899999999998
11
230.1886140000000012
21
-91.9798849999999959
0
LINE
8
BLACK
6
CONTINUOUS
10
230.1886140000000012
20
-91.9798849999999959
11
230.4376489999999933
21
-91.7922209999999978
0
LINE
8
BLACK
6
CONTINUOUS
10
230.4376489999999933
20
-91.7922209999999978
11
230.6657039999999768
21
-91.5795549999999992
0
LINE
8
BLACK
6
CONTINUOUS
10
230.6657039999999768
20
-91.5795549999999992
11
230.8702799999999797
21
-91.3442149999999913
0
LINE
8
BLACK
6
CONTINUOUS
10
230.8702799999999797
20
-91.3442149999999913
11
231.0491359999999759
21
-91.0887799999999999
0
LINE
8
BLACK
6
CONTINUOUS
10
231.0491359999999759
20
-91.0887799999999999
11
231.2003119999999967
21
-90.8160489999999925
0
LINE
8
BLACK
6
CONTINUOUS
10
231.2003119999999967
20
-90.8160489999999925
11
231.3221519999999884
21
-90.529010999999997
0
LINE
8
BLACK
6
CONTINUOUS
10
231.3221519999999884
20
-90.529010999999997
11
231.4133209999999963
21
-90.2308089999999936
0
LINE
8
BLACK
6
CONTINUOUS
10
231.4133209999999963
20
-90.2308089999999936
11
231.4728199999999845
21
-89.9247110000000021
0
LINE
8
BLACK
6
CONTINUOUS
10
231.4728199999999845
20
-89.9247110000000021
11
231.4999969999999792
21
-89.6140699999999981
0
LINE
8
BLACK
6
CONTINUOUS
10
231.4999969999999792
20
-89.6140699999999981
11
231.4945549999999912
21
-89.3022899999999993
0
LINE
8
BLACK
6
CONTINUOUS
10
231.4945549999999912
20
-89.3022899999999993
11
231.4755539999999883
21
-89.1475389999999948
0
LINE
8
BLACK
6
CONTINUOUS
10
231.4755539999999883
20
-89.1475389999999948
11
227.4416929999999866
21
-56.2950710000000001
0
LINE
8
BLACK
6
CONTINUOUS
10
227.4416929999999866
20
-56.2950710000000001
11
227.441695999999979
21
-56.2950189999999964
0
LINE
8
BLACK
6
CONTINUOUS
10
227.441695999999979
20
-56.2950189999999964
11
227.4259259999999756
21
-56.1665869999999998
0
LINE
8
BLACK
6
CONTINUOUS
10
227.4259259999999756
20
-56.1665869999999998
11
227.3610989999999958
21
-55.9159389999999945
0
LINE
8
BLACK
6
CONTINUOUS
10
227.3610989999999958
20
-55.9159389999999945
11
227.264111999999983
21
-55.6758959999999945
0
LINE
8
BLACK
6
CONTINUOUS
10
227.264111999999983
20
-55.6758959999999945
11
227.136622999999986
21
-55.4505649999999974
0
LINE
8
BLACK
6
CONTINUOUS
10
227.136622999999986
20
-55.4505649999999974
11
226.980813999999981
21
-55.2438029999999998
0
LINE
8
BLACK
6
CONTINUOUS
10
226.980813999999981
20
-55.2438029999999998
11
226.7993499999999756
21
-55.0591469999999958
0
LINE
8
BLACK
6
CONTINUOUS
10
226.7993499999999756
20
-55.0591469999999958
11
226.5953370000000007
21
-54.899754999999999
0
LINE
8
BLACK
6
CONTINUOUS
10
226.5953370000000007
20
-54.899754999999999
11
226.3722640000000013
21
-54.7683559999999972
0
LINE
8
BLACK
6
CONTINUOUS
10
226.3722640000000013
20
-54.7683559999999972
11
226.1339490000000012
21
-54.6671969999999945
0
LINE
8
BLACK
6
CONTINUOUS
10
226.1339490000000012
20
-54.6671969999999945
11
225.8844689999999957
21
-54.5980089999999976
0
LINE
8
BLACK
6
CONTINUOUS
10
225.8844689999999957
20
-54.5980089999999976
11
225.6280929999999785
21
-54.5619769999999988
0
LINE
8
BLACK
6
CONTINUOUS
10
225.6280929999999785
20
-54.5619769999999988
11
225.3692069999999887
21
-54.5597149999999971
0
LINE
8
BLACK
6
CONTINUOUS
10
225.3692069999999887
20
-54.5597149999999971
11
225.2407240000000002
21
-54.575489999999995
0
LINE
8
BLACK
6
CONTINUOUS
10
225.2407240000000002
20
-54.575489999999995
11
224.4840030000000013
21
-54.6684020000000004
0
LINE
8
BLACK
6
CONTINUOUS
10
224.4840030000000013
20
-54.6684020000000004
11
224.4839949999999931
21
-54.6684009999999958
0
LINE
8
BLACK
6
CONTINUOUS
10
224.4839949999999931
20
-54.6684009999999958
11
224.2195449999999823
21
-54.6834199999999981
0
LINE
8
BLACK
6
CONTINUOUS
10
224.2195449999999823
20
-54.6834199999999981
11
223.9553899999999942
21
-54.6637920000000008
0
LINE
8
BLACK
6
CONTINUOUS
10
223.9553899999999942
20
-54.6637920000000008
11
223.6960559999999987
21
-54.6098519999999965
0
LINE
8
BLACK
6
CONTINUOUS
10
223.6960559999999987
20
-54.6098519999999965
11
223.4459809999999891
21
-54.5225239999999971
0
LINE
8
BLACK
6
CONTINUOUS
10
223.4459809999999891
20
-54.5225239999999971
11
223.2094449999999881
21
-54.4033019999999965
0
LINE
8
BLACK
6
CONTINUOUS
10
223.2094449999999881
20
-54.4033019999999965
11
222.990493999999984
21
-54.2542249999999981
0
LINE
8
BLACK
6
CONTINUOUS
10
222.990493999999984
20
-54.2542249999999981
11
222.7928749999999809
21
-54.0778439999999989
0
LINE
8
BLACK
6
CONTINUOUS
10
222.7928749999999809
20
-54.0778439999999989
11
222.6199689999999975
21
-53.8771780000000007
0
LINE
8
BLACK
6
CONTINUOUS
10
222.6199689999999975
20
-53.8771780000000007
11
222.4747339999999838
21
-53.6556599999999975
0
LINE
8
BLACK
6
CONTINUOUS
10
222.4747339999999838
20
-53.6556599999999975
11
222.3596560000000011
21
-53.4170790000000011
0
LINE
8
BLACK
6
CONTINUOUS
10
222.3596560000000011
20
-53.4170790000000011
11
222.2767039999999952
21
-53.1655189999999962
0
LINE
8
BLACK
6
CONTINUOUS
10
222.2767039999999952
20
-53.1655189999999962
11
222.227296999999993
21
-52.9052839999999946
0
LINE
8
BLACK
6
CONTINUOUS
10
222.227296999999993
20
-52.9052839999999946
11
222.2273079999999936
21
-52.9052829999999972
0
LINE
8
BLACK
6
CONTINUOUS
10
222.2273079999999936
20
-52.9052829999999972
11
220.3931969999999865
21
-37.9676279999999977
0
LINE
8
BLACK
6
CONTINUOUS
10
220.3931969999999865
20
-37.9676279999999977
11
220.3931969999999865
21
-37.9676199999999966
0
LINE
8
BLACK
6
CONTINUOUS
10
220.3931969999999865
20
-37.9676199999999966
11
220.3781749999999988
21
-37.7031579999999948
0
LINE
8
BLACK
6
CONTINUOUS
10
220.3781749999999988
20
-37.7031579999999948
11
220.3978039999999794
21
-37.4389899999999969
0
LINE
8
BLACK
6
CONTINUOUS
10
220.3978039999999794
20
-37.4389899999999969
11
220.4517489999999782
21
-37.1796439999999961
0
LINE
8
BLACK
6
CONTINUOUS
10
220.4517489999999782
20
-37.1796439999999961
11
220.5390879999999925
21
-36.9295599999999951
0
LINE
8
BLACK
6
CONTINUOUS
10
220.5390879999999925
20
-36.9295599999999951
11
220.6583249999999907
21
-36.6930169999999976
0
LINE
8
BLACK
6
CONTINUOUS
10
220.6583249999999907
20
-36.6930169999999976
11
220.8074199999999792
21
-36.474063000000001
0
LINE
8
BLACK
6
CONTINUOUS
10
220.8074199999999792
20
-36.474063000000001
11
220.9838220000000035
21
-36.2764449999999954
0
LINE
8
BLACK
6
CONTINUOUS
10
220.9838220000000035
20
-36.2764449999999954
11
221.1845099999999888
21
-36.1035460000000015
0
LINE
8
BLACK
6
CONTINUOUS
10
221.1845099999999888
20
-36.1035460000000015
11
221.4060519999999883
21
-35.9583239999999975
0
LINE
8
BLACK
6
CONTINUOUS
10
221.4060519999999883
20
-35.9583239999999975
11
221.6446550000000002
21
-35.8432639999999978
0
LINE
8
BLACK
6
CONTINUOUS
10
221.6446550000000002
20
-35.8432639999999978
11
221.8962359999999876
21
-35.7603359999999952
0
LINE
8
BLACK
6
CONTINUOUS
10
221.8962359999999876
20
-35.7603359999999952
11
222.1561439999999834
21
-35.7110240000000019
0
LINE
8
BLACK
6
CONTINUOUS
10
222.1561439999999834
20
-35.7110240000000019
11
222.1564829999999802
21
-35.7109129999999979
0
LINE
8
BLACK
6
CONTINUOUS
10
222.1564829999999802
20
-35.7109129999999979
11
222.9128769999999804
21
-35.6181069999999949
0
LINE
8
BLACK
6
CONTINUOUS
10
222.9128769999999804
20
-35.6181069999999949
11
222.9130409999999927
21
-35.6181190000000001
0
LINE
8
BLACK
6
CONTINUOUS
10
222.9130409999999927
20
-35.6181190000000001
11
223.0413719999999955
21
-35.6023700000000005
0
LINE
8
BLACK
6
CONTINUOUS
10
223.0413719999999955
20
-35.6023700000000005
11
223.2920399999999859
21
-35.5375569999999996
0
LINE
8
BLACK
6
CONTINUOUS
10
223.2920399999999859
20
-35.5375569999999996
11
223.5321040000000039
21
-35.4405789999999996
0
LINE
8
BLACK
6
CONTINUOUS
10
223.5321040000000039
20
-35.4405789999999996
11
223.7574549999999931
21
-35.3130960000000016
0
LINE
8
BLACK
6
CONTINUOUS
10
223.7574549999999931
20
-35.3130960000000016
11
223.9642369999999971
21
-35.1572880000000012
0
LINE
8
BLACK
6
CONTINUOUS
10
223.9642369999999971
20
-35.1572880000000012
11
224.1489129999999932
21
-34.9758209999999963
0
LINE
8
BLACK
6
CONTINUOUS
10
224.1489129999999932
20
-34.9758209999999963
11
224.3083209999999781
21
-34.7718009999999964
0
LINE
8
BLACK
6
CONTINUOUS
10
224.3083209999999781
20
-34.7718009999999964
11
224.4397349999999847
21
-34.5487199999999959
0
LINE
8
BLACK
6
CONTINUOUS
10
224.4397349999999847
20
-34.5487199999999959
11
224.5409059999999783
21
-34.3103929999999977
0
LINE
8
BLACK
6
CONTINUOUS
10
224.5409059999999783
20
-34.3103929999999977
11
224.6101019999999835
21
-34.0608989999999991
0
LINE
8
BLACK
6
CONTINUOUS
10
224.6101019999999835
20
-34.0608989999999991
11
224.6461389999999767
21
-33.8045079999999984
0
LINE
8
BLACK
6
CONTINUOUS
10
224.6461389999999767
20
-33.8045079999999984
11
224.6484019999999759
21
-33.5456069999999968
0
LINE
8
BLACK
6
CONTINUOUS
10
224.6484019999999759
20
-33.5456069999999968
11
224.6326259999999877
21
-33.417116
0
LINE
8
BLACK
6
CONTINUOUS
10
224.6326259999999877
20
-33.417116
11
222.9203839999999843
21
-19.4720089999999999
0
LINE
8
BLACK
6
CONTINUOUS
10
222.9203839999999843
20
-19.4720089999999999
11
222.9203839999999843
21
-19.4720079999999989
0
LINE
8
BLACK
6
CONTINUOUS
10
222.9203839999999843
20
-19.4720079999999989
11
222.9203689999999938
21
-19.4720099999999974
0
LINE
8
BLACK
6
CONTINUOUS
10
222.9203689999999938
20
-19.4720099999999974
11
222.9013709999999833
21
-19.3172579999999989
0
LINE
8
BLACK
6
CONTINUOUS
10
222.9013709999999833
20
-19.3172579999999989
11
222.8312310000000025
21
-19.0134219999999985
0
LINE
8
BLACK
6
CONTINUOUS
10
222.8312310000000025
20
-19.0134219999999985
11
222.7297149999999988
21
-18.7185819999999978
0
LINE
8
BLACK
6
CONTINUOUS
10
222.7297149999999988
20
-18.7185819999999978
11
222.5979359999999758
21
-18.4359690000000001
0
LINE
8
BLACK
6
CONTINUOUS
10
222.5979359999999758
20
-18.4359690000000001
11
222.4373359999999877
21
-18.1686790000000009
0
LINE
8
BLACK
6
CONTINUOUS
10
222.4373359999999877
20
-18.1686790000000009
11
222.2496759999999938
21
-17.9196409999999986
0
LINE
8
BLACK
6
CONTINUOUS
10
222.2496759999999938
20
-17.9196409999999986
11
222.0370119999999758
21
-17.6915839999999989
0
LINE
8
BLACK
6
CONTINUOUS
10
222.0370119999999758
20
-17.6915839999999989
11
221.8016739999999913
21
-17.4870060000000009
0
LINE
8
BLACK
6
CONTINUOUS
10
221.8016739999999913
20
-17.4870060000000009
11
221.5462399999999832
21
-17.3081490000000002
0
LINE
8
BLACK
6
CONTINUOUS
10
221.5462399999999832
20
-17.3081490000000002
11
221.2735099999999875
21
-17.1569730000000007
0
LINE
8
BLACK
6
CONTINUOUS
10
221.2735099999999875
20
-17.1569730000000007
11
220.9864709999999945
21
-17.0351329999999983
0
LINE
8
BLACK
6
CONTINUOUS
10
220.9864709999999945
20
-17.0351329999999983
11
220.6882689999999911
21
-16.9439649999999986
0
LINE
8
BLACK
6
CONTINUOUS
10
220.6882689999999911
20
-16.9439649999999986
11
220.3821709999999996
21
-16.8844689999999993
0
LINE
8
BLACK
6
CONTINUOUS
10
220.3821709999999996
20
-16.8844689999999993
11
220.0715299999999957
21
-16.8572939999999996
0
LINE
8
BLACK
6
CONTINUOUS
10
220.0715299999999957
20
-16.8572939999999996
11
219.7597499999999968
21
-16.8627409999999998
  0
ENDSEC
  0
EOF
